<?xml version="1.0" encoding="utf-8"?>
<!-- Generator: Adobe Illustrator 23.0.1, SVG Export Plug-In . SVG Version: 6.00 Build 0)  -->
<svg version="1.1" id="Layer_1" xmlns="http://www.w3.org/2000/svg" xmlns:xlink="http://www.w3.org/1999/xlink" x="0px" y="0px"
	 viewBox="0 0 595.28 841.89" style="enable-background:new 0 0 595.28 841.89;" xml:space="preserve">
<style type="text/css">
	.st0{fill:#2B282A;}
	.st1{fill:#807F8C;}
	.st2{fill:#ECBD9C;}
	.st3{fill:#FEFEFE;}
</style>
<g>
	<path class="st0" d="M467.65,316.15c-6.29,1.65-22.91-5.32-25.63-10.4c-6.24,1.31-22.59-5.4-25.76-10.73
		c-2.64,1.27-5.2,0.93-7.88-0.39c-3.35-1.65-6.89-2.9-10.35-4.31c-7.79-3.18-9.95-8.31-6.76-16.05
		c5.27-12.79,10.55-25.58,15.94-38.65c-13.06-5.9-26.36-10.09-39.88-13.59c-17.69-4.57-35.65-7.55-53.89-8.84
		c-2.26-0.16-4.32-0.57-5.33,2.27c-0.48,1.35-1.96,2.19-3.29,2.44c-8.39,1.58-13.09,9.49-20.9,12.02c-0.83,0.27-1.03,1.09-1.05,1.91
		c-0.23,8.82-0.32,17.64-1.04,27.01c7.77-18.85,21.77-26.04,41.61-23.35c1.85-4.2,3.67-8.78,8.25-11.14
		c1.41-0.73,2.73-2.18,4.68-0.88c1.71,1.14,1.27,2.71,1.15,4.19c-0.41,5.38,2.07,9.38,6.16,12.39c4.43,3.26,8.24,7.17,12.24,10.87
		c11.61,10.73,12.22,24.15,9.13,38.39c-1.74,8.02-5.6,15.14-10.07,22.49c4.66,2.19,8.65,5.11,9.63,10.49
		c0.57,3.12,0.24,6.16-1.39,9.05c-3.77,6.66-10.51,7.96-21.36,3.84c-2.69,4.34-6.27,7.93-11.02,10.7
		c6.43,4.72,9.31,11.37,11.01,18.55c0.94,3.96,4.24,6.45,5.52,10.18c0.5,1.47,2.81,1.3,3.79,0.72c4.44-2.66,9.24-4.19,14.04-5.96
		c2.91-1.07,4.73-5.16,6.95-7.97c1.09-1.37,2.11-2.62,4.02-2.88c4.52-0.62,8.19,3.6,6.8,8.06c-0.55,1.76-1.5,3.39-2.62,5.84
		c2.57-0.92,4.57-1.87,6.68-2.33c3.28-0.72,6.72-1.08,8.43,2.82c1.63,3.72-0.21,6.38-3.25,8.27c-2.9,1.8-5.99,3.29-9.02,4.93
		c0.3,7.34-2.01,11.07-8.55,14.17c-2.52,1.19-4.26,3.56-6.96,4.63c-2.43,0.97-5.34-0.05-7.77,2.21
		c10.61,6.21,14.25,15.51,12.39,27.3c-1,6.29-3.54,11.98-6.93,17.22c-3.89,6.01-8.23,11.73-12.29,17.64
		c-1.2,1.75-2.83,3.32-3.13,5.85c4.88,1.56,9.78,3.13,12.94,7.52c1.24,1.72,3,3.49,1.75,5.86c-1.12,2.12-3.34,1.22-5.08,1.23
		c-13.26,0.08-26.53,0.06-39.79,0.05c-5.72,0-5.96-0.25-5.44-5.82c0.23-2.45,0.68-4.88,1.13-7.98c-20.48,6.75-40.81,6.32-61.57,0.61
		c0.36,2.94,0.71,5.66,1.04,8.38c0.37,3.08-0.74,4.7-4.1,4.68c-14.2-0.06-28.4,0.05-42.6-0.03c-4.48-0.03-5.33-1.67-3.18-5.52
		c2.07-3.71,5.34-5.98,9.22-7.49c1.58-0.61,3.15-1.24,5.45-2.14c-4.65-6.58-9.14-12.84-13.54-19.16
		c-4.48-6.44-8.34-13.18-9.65-21.07c-1.05-6.36-0.14-12.48,2.88-18.15c4.8-8.99,14.5-12.13,26.02-8.63c1.45,0.44,2.86,1,4.73,1.67
		c1.14-9.77,3.95-18.77,7.02-27.72c1.29-3.76-0.43-7.71-0.89-11.57c-2.56-21.08-0.95-42.05,2.05-62.93
		c3.33-23.17,8.5-45.92,16.69-67.92c0.54-1.46,0.99-2.98,1.74-4.33c3.63-6.52,5.44-13.34,3.2-21.24
		c-30.89,2.5-61.15,9.48-90.51,21.73c5.44,13.14,10.73,25.91,16,38.69c1.95,4.72-0.81,11.24-5.58,13.24
		c-4.31,1.8-8.68,3.49-12.93,5.42c-2.4,1.09-4.64,1.68-6.93,0.01c-3.95,5.64-20.06,12.4-25.67,10.85
		c-3.96,5.46-20.28,12.1-25.96,10.32c-0.65,3.25-3.15,4.54-6.01,5.58c-3.51,1.27-6.95,2.76-10.4,4.19
		c-7.58,3.14-12.69,1.01-15.8-6.51c-11.84-28.62-23.7-57.23-35.56-85.85c-2.32-5.6,0.14-11.66,5.68-14
		c4.16-1.75,8.36-3.39,12.48-5.24c2.39-1.07,4.66-1.73,6.92-0.04c4.5-5.84,20.54-12.4,25.75-10.67
		c3.94-5.54,19.94-12.21,26.12-10.73c0.79-2.96,3.1-4.27,5.85-5.25c3.23-1.14,6.35-2.59,9.51-3.92c8.7-3.66,13.59-1.58,17.26,7.3
		c4.86,11.76,9.72,23.52,14.71,35.59c15.08-6.15,30.12-11.11,45.59-14.76c14.89-3.51,29.91-6.1,45.16-7.36
		c3.03-0.25,5.82-0.58,8.33-3.16c2.89-2.98,7.63-1.81,11.42-2.7c3.76-0.88,8.26-2.11,12.65-0.15c2.09,0.93,4.52,0.88,5.62,3.37
		c0.56,1.27,1.71,1.12,2.8,1.14c39.33,1.04,77.38,8.31,113.84,23.34c0.41,0.17,0.91,0.13,1.68,0.24
		c4.83-11.74,9.69-23.5,14.52-35.28c2.42-5.9,8.39-8.49,14.21-6.12c4.04,1.64,8.02,3.43,12.1,4.94c2.59,0.96,4.85,2.06,5.39,5.01
		c6.97-1.05,23.09,5.65,25.75,10.57c6.58-1.22,22.82,5.61,25.6,10.96c2.79-1.73,5.51-0.96,8.28,0.31c2.96,1.36,6.03,2.49,9.04,3.77
		c9.25,3.91,11.12,8.45,7.3,17.7c-11.52,27.92-23.04,55.84-34.59,83.75c-2.79,6.76-8.42,9.09-15.1,6.36
		c-3.89-1.59-7.75-3.27-11.69-4.75C470.38,320.39,468.4,319.13,467.65,316.15z M297.98,429.07c0.13,0.02,0.26,0.06,0.39,0.07
		c0.04,0,0.08-0.09,0.12-0.13c-0.2,0.07-0.4,0.13-0.6,0.2c0.79-1.01,0.02-1.72-0.51-2.43c-4.33-5.72-10.07-9.56-16.61-12.82
		c0.04,4.37-1.97,7.87-2.56,11.89C284.98,426.28,291.54,427.27,297.98,429.07z M491.38,262.44c0.63-0.76,1.26-1.52,2.1-2.54
		c1.19,6.85,6.37,11.65,12.6,11.68c3.92,0.02,7.86-1.44,9.26-5.24c4.26-11.62,11.35-21.9,15.47-33.58
		c1.73-4.91,0.56-8.59-4.38-10.68c-2.29-0.97-4.6-1.9-6.89-2.89c-7.29-3.15-8.56-2.9-13.54,2.76c-0.14-1.78,0.49-3.39-0.05-5.38
		c-1.3-4.81-5.44-5.16-8.85-6.55c-4.32-1.76-8.46-4.82-13.68-2.29c-1.92,0.93-3.31-0.56-3.53-2.55c-0.25-2.25-1.67-3.11-3.53-3.83
		c-3.05-1.17-6.22-2.18-9.03-3.8c-4.33-2.51-8.02-1.53-11.82,1.56c-0.08-5.17-2.54-8.03-7.12-9.41c-2.82-0.85-5.47-2.22-8.22-3.31
		c-4.05-1.6-8.19,0.14-9.82,4.07c-4.76,11.5-9.6,22.97-14.27,34.51c-1.12,2.76-3.05,5.36-2.67,9.56c1.33-2.21,2.21-3.67,3.19-5.31
		c2.26,8.21,8.28,10.52,13.49,10.57c6.29,0.07,9.12-4.85,11.13-9.83c2.37-5.89,4.63-11.8,7.66-17.4c2.1-3.88,3.9-7.91,6.08-12.38
		c0.78,1.99-0.06,2.9-0.45,3.86c-8.05,19.62-16.27,39.17-24.13,58.87c-2.88,7.23-6.52,14.13-8.1,21.99
		c-0.73,3.61,1.01,7.33-1.31,10.92c5.35,2.24,10.64,4.45,16.27,6.8c0.93-4.21,5.76-4.43,7.22-8.68c3.43-9.97,7.94-19.57,11.93-29.36
		c2.76-6.77,1.68-8.6-5.76-9.94c-4.49-0.81-8.73-2.04-11.85-5.73c0.89-2.9,1.1-5.99,3.32-8.65c0.42,0.98,0.69,1.7,1.03,2.39
		c2.31,4.77,6.21,7.18,11.42,7.63c5.05,0.44,7.87-2.08,10.23-6.41c1.37-2.5,1.57-5.97,5.45-8.26c-0.59,6.21-5.17,10.55-4.94,16.28
		c2.02-0.47,1.15-2.6,2.82-2.62c0.78,6.34,4.74,10.56,10.54,11.33c6.23,0.83,10.65-1.27,12.54-7.82c2.16-7.48,7.76-13.08,9.88-20.52
		c1.04-3.64,2.48-7.33,4.98-10.39c0.31,3.6-1.79,6.5-2.96,9.63c-3.81,10.26-9.63,19.71-12.28,30.44c-0.42,0.63-0.95,1.22-1.24,1.91
		c-4.78,11.61-9.55,23.23-14.29,34.86c-1.34,3.28-2.6,6.59-3.83,9.92c-1.16,3.12,2.59,5.45,1.03,8.51
		c5.53,2.27,10.67,4.39,15.15,6.23c4.64-3.55,7.61-7.29,9.39-12.29c3.11-8.76,7.06-17.21,10.52-25.85c1.2-3,0.37-5.58-2.8-6.89
		c-1.56-0.65-3.27-0.96-4.91-1.38c-3.79-0.98-7.08-3.14-9.65-5.79c-2.03-2.1,1.08-4.79,1.07-7.36
		C491.25,263.37,491.34,262.9,491.38,262.44z M138.92,235.99c1.19,0.33,2.36,0.77,3.57,0.99c5.21,0.92,9.88-0.04,13.62-4.11
		c3.41-3.72,3.27-7.81,1.38-12.12c-1.11-2.52-2.8-4.99-3.12-7.63c-1.13-9.17-6.06-16.88-9.17-25.27c-1.39-3.75-5.54-5.25-9.26-3.89
		c-3.79,1.39-7.55,2.89-11.26,4.5c-4.13,1.8-5.3,5.27-3.54,9.5c0.83,1.99,1.99,3.9,1.91,6.18c-2.22-0.92-2.22-3.16-2.99-4.95
		c-2.07-4.78-5.77-6.31-10.54-4.36c-3.46,1.41-6.92,2.8-10.33,4.32c-4.3,1.91-5.27,4.91-3.73,9.26c0.87,2.45,2.63,4.7,2.6,8.71
		c-2.34-2.98-3.43-5.27-4-7.86c-0.83-3.8-4.77-5.67-6.93-4.71c-6.98,3.1-16.56,2.74-18.88,12.56c-3.04,0.04-4.76-3.51-8.06-1.91
		c-3.92,1.9-8.08,3.31-12.05,5.12c-3.6,1.64-5.08,6.03-3.55,9.67c11.75,28.15,23.5,56.29,35.22,84.45
		c2.23,5.37,5.98,7.34,11.36,5.39c4.07-1.47,8-3.34,12.43-5.21c-2.57-3.11,0.39-6.14-0.99-9.56c-4.13-10.23-9.03-20.14-12.64-30.59
		c-0.66-1.92-2.5-3.49-5.5-4.06c-4.25-0.81-6.82,1.5-9.82,3.05c-7.93,4.11-7.98,4.2-11.46-3.8c-0.28-0.65-0.98-1.26-0.4-2.09
		c13.16,4.71,20.3-2.07,17.96-18.17c2.85,2.42,3.92,5.08,5.01,7.68c4.08,9.77,7.7,19.75,12.25,29.3
		c4.11,8.64,6.64,18.56,16.11,23.93c4.78-1.97,9.65-3.97,15.25-6.27c-3.25-3.06,0.37-6.09-1.17-9.47
		c-5.01-11.01-9.48-22.27-14.16-33.43c-1.49-3.56-4.51-3.61-6.89-1.92c-2.52,1.79-5.31,2.51-8,3.63c-7.22,3.01-9.62,1.58-10.96-6.63
		c4.74,3.66,9.44,2.82,14.12,0.22c4.86-2.71,5.6-7.9,7.19-12.77c2.25,2.53,2.13,6.05,4.84,8.17c0.97-2.39-1.39-3.94-0.95-6.02
		c6.08,3.25,11.76,2.77,16.11-1.22c4.44-4.08,5.15-9.26,2.69-15.69c-1.7-4.44-4.58-8.52-4.48-13.56c3.44,5.24,5.12,11.27,7.54,16.96
		c7.4,17.47,14.64,35.01,22.01,52.5c1.46,3.46,5.71,5.27,9.1,3.94c4.48-1.75,8.9-3.68,13.35-5.53c-1.78-3.74,0.74-7.41-1.13-11.26
		c-4.74-9.74-8.86-19.79-12.88-29.86c-1.32-3.3-3.05-3.79-6.07-2.96c-5.58,1.55-10.01,6.48-16.98,5.03
		c-1.02-2.28-2.34-5.24-3.66-8.19L138.92,235.99z M307.12,354.38c-1.75-2.46,1.48-3.6,1.15-5.67c-4.01,0.17-7.64-1.51-11.57-2.7
		c0.89,3.57,3.44,6.17,3.05,11.05c-9.44-15.35-21.13-27.11-34.16-37.92c2.56-1.63,4.15,0.82,6.36,0.21
		c-2.13-5.82-0.74-11.45,0.45-17.02c-6.67-3.63-13.02-7.58-11.79-16.28c1.12-7.95,7.23-10.58,14.51-11.17
		c1.22-13.15,3.16-25.94,3.1-38.89c-0.02-5.47-1.41-10.72,7.1-12.37c5.4-1.05,8.94-7.52,14.57-9.91c-9.35,0.4-17.71,3.85-25.83,7.86
		c-0.91-1.84,0.45-2.99,0.45-4.32c-2.65-3.16-5.86-1.27-9.11-1.44c0,1.28-0.09,2.21,0.02,3.12c0.11,0.91,0.34,1.83,0.66,2.7
		c0.68,1.89,0.47,3.64-0.44,5.41c-8.12,15.76-12.89,32.68-16.75,49.86c-6.05,26.97-10.55,54.19-8.6,81.94
		c0.9,12.89,3.33,25.64-2.89,37.93c-1.19,2.35,0.29,3.54,2.6,4.34c9.01,3.12,18.1,5.88,27.72,6.2c12.03,0.4,22.01,5.13,30.09,13.96
		c0.93,1.02,1.59,2.27,3.09,4.44c5.31-14.46,16.23-14.76,27.48-13.69c0.2-6.55-1.5-14.06-3.87-17.5c-0.52,0.22-1.08,0.45-1.64,0.68
		c-0.68,0.28-1.32,0.88-2.12,0.31c0.26-1.7,9.77-19.21,11.12-20.29c1.92,3.29,0.63,6.46-0.57,9.32c-2.77,6.63-0.07,12.62,2.12,18.46
		c1.62,4.35,6.05,5.58,10.9,4.45c2.41-0.56,4.91-0.74,7.35-1.17c3.17-0.57,5.28-1.97,4.11-5.7c-0.26-0.84-0.89-1.75,0.32-2.41
		c6,3.58,8.44,3.56,12.71-0.77c-6.44-0.31-5.53-8.02-11.7-9.7c3.53-1.76,2.2-4.91,2.88-7.57c4.39,3.41,4.39,3.41,7.33-0.32
		c-9.05-9.3-12.25,0.69-16.64,5.29c-2.06-1.39,0.51-3.17-1.13-4.58c-8.12-0.78-11.08,5.52-15.07,12.43
		c-0.25-6.88,1.81-11.27,5.89-14.75c1.28-1.09,2.79-2.23,1.26-3.73c-4.63-4.56-4.54-11.05-7.06-16.45
		c-4.3-9.21-13.17-12.2-22.12-7.26C310.72,351.71,309.14,352.99,307.12,354.38z M332.5,230.54c-6.76,6.17-5.89,16.63,1.44,21.41
		c1.32,0.86,3.67,1.4,2.32,3.67c-1.25,2.1-3.27,1.32-4.98,0.42c-4.67-2.46-7.19-6.68-7.74-11.61c-0.44-3.92-2.56-4.47-5.56-4.71
		c-13.65-1.1-25.18,6.36-29.78,19.22c-2.61,7.31-3.18,14.9-3.37,22.56c-0.04,1.43-0.04,2.94-1.63,3.57
		c-1.62,0.64-2.61-0.52-3.54-1.59c-2.27-2.64-5.1-3.14-8.38-2.3c7.69,7.51,8.62,9.77,5.48,13.58c-1.75-1.75-1.56-4.71-3.78-6.15
		c-1.93,1.49,0.89,3.62-1.11,5.44c-5.65-3.03-1.28-8.88-3.77-12.86c-2.61,1.37-2.88,3.97-2.68,6.56c0.55,7.04,6.3,8.84,11.64,10.86
		c-5.79,13.26,1.46,33.09,13.6,37.18c-3.16-10.48-12.61-20.69-1.03-30.99c-0.56-2.18-3.06-0.41-3.29-2.4
		c3.55-2.74,5.48-2.88,9.47-0.74c-0.15,1.86-2.82,0.15-2.99,2.35c4.89,0.01,8.76,2.54,12.69,5.01c3.17,1.99,6.42,3.86,10.31,4.04
		c4.4,0.2,8.28,1.46,10.83,5.44c1.1-0.85,1.33-2.95,3.23-1.76c2.63,1.66,4.12,3.97,4.42,7.24c-5.22-1.26-5.26-1.24-7.02,3.62
		c-2.33,6.46-8.15,10.64-15.05,10.55c-6.08-0.08-11.82,3.9-18.13,0.91c4.14,3.56,8.62,5.73,13.73,5.88
		c11.24,0.33,21.99-1,28.89-11.46c3.44-5.21,3.14-5.21,8.57-2.4c3.69,1.91,7.64,2.93,11.48,0.11c2.68-1.96,3.8-4.79,2.96-7.83
		c-1.2-4.34-4.42-6.5-8.99-6.82c-3.93-0.28-3.87-2.46-1.98-5.08c2.84-3.93,5.36-8.04,7.48-12.4c8.79-18,8.62-38.03-11.02-51.05
		C339.11,243.95,332.97,239.23,332.5,230.54z M335.63,482.26c3.71-4.46,8.85-5.32,10.66-1.42c2.57,5.51,6.47,3.48,11.51,3.79
		c-8.04-6.16-16.68-7.49-24.8-10.07c2.46-1.18,4.82-1.35,7.12-1.03c2.93,0.4,4.7-0.43,6.34-3.12c3.07-5.04,6.66-9.78,10.17-14.55
		c5.53-7.5,9.78-15.53,11.19-24.87c1.65-10.95-7.3-21.97-17.37-19.57c-18.25,4.34-32.08,15.78-41.16,31.97
		c-4.64,8.26,3.25,20,12.67,20.94c2.98-9.65,3.45-19.68,3.3-30.23c2.66,1.3,1.29,3.55,3.18,3.97c2.34-1.61,2.46-5.65,6.87-6.84
		c-2.75,8.53-5.02,15.9-6.11,23.56c-1.12,7.91-2.34,15.71-8.13,21.95c-1.85,2-1.96,4.82-1.28,7.64c8,0,15.94,0,24.17,0
		C342.02,479.72,338.63,483.01,335.63,482.26z M247.3,464.3c12.22-3.26,17.4-15.28,10.28-25.54c-8.88-12.79-20.78-22.43-35.86-27.16
		c-11.66-3.66-23.29,7.38-20.88,19.38c1.52,7.54,4.69,14.43,9.08,20.73c3.88,5.58,8.11,10.95,11.67,16.73
		c2.24,3.63,4.3,6.14,9.05,4.66c1.69-0.53,3.63,0.12,6.13,1.67c-9.17,1.92-17.8,3.4-25.72,9.54c3.94,0,6.81,0,9.92,0
		c0.87-2.98,2.25-5.62,6.04-5.9c2.96-0.21,5.01,0.91,6.53,3.61c-2.84,1.04-6.46-2.73-8.65,2.46c8.32-0.01,16.26,0.39,24.2-0.37
		c1.03-4.06-0.38-7.12-2.72-9.76c-3.24-3.67-4.62-8.02-5.43-12.7c-1.7-9.8-2.96-19.72-7.29-28.87c-0.42-0.88-0.97-2.03,0.3-3.12
		c3.92,1.3,3.96,5.97,6.8,8.15c1.71-0.67,0.18-3.19,3.13-3.97C243.71,444.19,244,454.32,247.3,464.3z M237.23,404.56
		c-4.65,6.17-0.04,8.5,4.08,11.85c7.07,5.74,15.1,10.56,20.01,18.63c2.17,3.57,4.29,7.13,4.37,11.57
		c0.18,10.29-4.76,17.4-13.49,22.14c9.76,7.14,21.04,6.73,32.13,6.93c11.25,0.2,22.27-0.95,32.4-6.97
		c-6.14-2.99-10.01-7.7-12.56-13.8c-1.45,3.13-1.81,7.2-4.56,8.37c-7.36,3.12-15.09,3.21-23.05,0.68c0.92-1.44,1.72-1.32,2.44-1.11
		c5.73,1.66,11.43,0.52,17.15-0.09c2.01-0.21,3.42-0.96,4.2-3.06c2.08-5.62,3.35-11.35,3.18-17.36c-0.14-4.8-3.17-7.79-7.19-9.19
		c-6.03-2.1-12.4-3.33-18.8-3.09c-4.04,0.15-4.56-1.19-3.63-4.58c1.15-4.22,3.46-8.3,2.02-13.24
		C262.65,411.34,249.82,408.29,237.23,404.56z M154.05,293.71c0.4-16.45-10.35-28.83-14.32-43.47c-4.39,0.26-8.14,0.66-11.63,2.71
		c-4.26,2.51-8.71,5.31-13.46,0.15c0.3,1.94,0.67,3.57,1.32,5.08c5.02,11.65,9.22,23.64,14.68,35.11c2.68,5.63,6.69,7.55,12.31,5.25
		C146.55,297.07,150.08,295.44,154.05,293.71z M411.98,241.62c-0.11-2.17,2.16-4.08,0.96-6.41c-0.52,0.08-0.76,0.06-0.8,0.14
		c-7,13.85-11.62,28.69-17.81,42.88c-1.29,2.96,1.48,6.97,2.81,7.78c4.38,2.69,9.67,3.9,14.59,5.67c1.82-3.46,5.76-4.49,7.16-8.47
		c3.28-9.31,7.37-18.34,11.23-27.44c1.42-3.36-0.01-6.37-2.56-7.37C422.39,246.36,417.26,244.27,411.98,241.62z M464.15,253
		c-5.98,15.72-13.58,29.76-17.95,45.08c-0.88,3.07-1.06,7.39,2.93,9.33c4.3,2.1,8.84,3.72,13.73,5.73c0.28-4.03,4.73-3.3,5.94-6.3
		c4.24-10.51,8.56-20.98,12.95-31.42c0.69-1.65,0.4-2.88-1.06-3.49c-4.14-1.73-7.95-4.21-12.06-5.86c-5.62-2.25-5.97-2.13-4.5-8.1
		C464.42,256.8,465.37,255.73,464.15,253z M294.95,208.64c1.2,0.06,2.12,0.13,3.04,0.15c21.99,0.5,43.67,3.35,65.08,8.38
		c14.42,3.39,28.47,7.9,42.22,13.4c1.46,0.59,3.28,1.98,4.23-0.64c0.78-2.16-1.11-2.56-2.44-3.26c-0.27-0.15-0.57-0.24-0.86-0.36
		c-15.44-6.28-31.31-11.19-47.61-14.68c-9.12-1.95-18.44-2.71-27.56-4.27c-10.93-1.88-21.86-2.25-32.8-3.23
		C295.2,203.86,293.8,205.05,294.95,208.64z M312.35,334.98c4.8,0.47,8.48-1.53,11.24-5.24c4.07-5.46,1.89-10.45-4.61-12.58
		c-5.92-1.94-12.08-3.41-17.12-7.71c-4.44-3.78-9.13-3.71-12.29-0.75c-3.4,3.17-3.78,10.58-0.57,15.12c2.81-5.43,8.64-6.2,13.29-8.7
		c3.01-1.62,6.31-0.25,8.1,2.69C313.55,323.04,313.92,328.73,312.35,334.98z M263.51,205.67c-7.12-1.69-46.76,4.58-52.57,8.37
		c1.42,3.53,4.44,2.37,6.75,1.91c14.14-2.82,28.35-5.15,42.75-6.12C263.49,209.62,264.24,208.36,263.51,205.67z M306.09,437.33
		c4.47-6.45,9.95-11.72,16.12-16.16c1.9-1.37,0.96-2.81,1.03-3.89c1.55-1.15,3.34,1.58,4.37-1.27c-3.1,0-6.06,0-9.04,0
		c3.07,2.22-0.95,3.76-0.03,5.68C305.62,421.71,303.1,424.9,306.09,437.33z M371.46,382.51c8.11,1.32,13.44-3.36,20.05-7.09
		c-2.76-1.25-4.35-0.32-5.79,0.36c-2.8,1.32-5.49,2.89-8.2,4.42c-1.54,0.87-3.12,1.85-4.63,0.27c-1.45-1.51-1.4-3.32-0.32-5.14
		c1.58-2.67,3.16-5.34,4.62-8.08c0.58-1.09,1.94-2.35-0.07-3.67c-3.59,3.77-7.37,7.36-9.64,12.38
		C369.52,377.85,371.97,379.28,371.46,382.51z M298.78,322.87c0.18,3.88,2.97,5.34,5.93,5.33c3.3-0.01,5.46-2.69,5.3-5.88
		c-0.17-3.19-2.34-5.43-5.92-5.19C300.58,317.36,298.93,319.53,298.78,322.87z M364.98,386.52c3.83,4.07,10.35,4.64,14.53,1.52
		C375.2,384.44,369.36,383.74,364.98,386.52z M274.29,213.36c3.84-3.06,5.17-10.08,3.21-12.73c-0.64-0.85-1.42-1.19-2.41-0.97
		c-0.82,0.18-1.49,0.8-1.46,1.61C273.77,205.04,274.03,208.8,274.29,213.36z M309.41,331.81c-10.39,5.25-15.87,2.79-17.25-7.72
		c-2.64,2.83-1.7,5.64-0.17,8.15c3.09,5.04,7.89,5.23,13.02,4.01C307.3,335.71,309.4,334.98,309.41,331.81z M281.32,199.67
		c1.58,4.63-0.31,9.37-0.06,14.45c3.48-2.69,4.93-8.32,3.67-12.7C284.44,199.74,283.72,198.59,281.32,199.67z M313.9,414.83
		c-3,1.11-4.89,3.24-7.86,5.76c3.98-0.8,6.75-1.36,9.57-1.93C315.34,417.22,315.14,416.04,313.9,414.83z M377.16,392.46
		c-4.55,0.43-8-0.37-11.69-0.93C368.37,395.83,372.07,396.29,377.16,392.46z M267.72,211.8c3.68-3.52,3.66-6.59,0-10.76
		C267.72,204.7,267.72,207.94,267.72,211.8z M289.35,211.42c1.82-3.67,2.16-7.36-0.06-10.96
		C289.32,204.11,288.86,207.75,289.35,211.42z M328.64,319.99c-0.24-0.32-0.39-0.69-0.55-0.69c-0.39,0-0.86,0.12-0.69,0.71
		c0.07,0.24,0.28,0.45,0.42,0.67C328.09,320.46,328.36,320.23,328.64,319.99z"/>
	<path class="st0" d="M211.19,490.76c14.7,0,29.02,0,43.81,0c0,5.73,0,11.36,0,17.69c14.93-21.74,36.94-24.57,51.4-7.41
		c-5.89,5.92-11.78,11.82-17.83,17.9c-2.37-1.74-4.8-5.43-8.37-1.68c-1.55,1.62-1.49,3.87,0.17,5.51c3.29,3.24,5.56,0.46,7.85-1.64
		c5.81,6.07,11.58,12.11,17.51,18.31c-8.82,13.73-37.8,16.67-50.33-8.14c0,6.66,0,12.37,0,18.52c-8.07,0-15.65,0-23.53,0
		c0,15.06,0,29.67,0,44.76c-6.91,0-13.53,0-20.43,0c0,6.98,0,13.49,0,20.34c-9.21,0-18.15,0-27.34,0c0-21.24,0-42.54,0-64.22
		c8.95,0,17.92,0,27.08,0C211.19,530.61,211.19,510.92,211.19,490.76z M228.62,554.58c-13.32-1.25-26.24-1.1-39.14-1.18
		c-2.86-0.02-2.8,1.75-2.78,3.73c0.23,17,0.51,33.99,0.62,50.99c0.02,2.95,1.15,3.77,3.88,3.67c4.05-0.16,8.13-0.3,12.16,0.04
		c4.11,0.34,5.05-1.4,4.85-5.12c-0.27-5.06-0.07-10.14-0.07-15.7c7.21,0,13.68,0,20.36,0c0-5.56,0-10.61,0-16.08
		c-5.36-0.3-10.46-0.48-15.54-0.93c-1.71-0.15-4.77,1.29-4.68-2.03c0.08-2.89,2.9-1.61,4.49-1.67c5.23-0.17,10.46-0.07,15.84-0.07
		C228.62,564.69,228.62,559.89,228.62,554.58z M251.44,546.67c0-3.24,0-5.72,0-8.2c0-7.1-0.01-7.01-7.2-7.37
		c-3.77-0.19-7.65,0.53-11.44-1.6c4.47-2.6,9.78-0.64,14.81-2.11c-0.07-4.68,0.42-9.27-0.28-13.69c-4.87-2-9.98-0.65-14.61-2.07
		c0.4-3.03,2.29-2.36,3.69-2.39c3.89-0.08,7.79-0.06,11.68-0.03c1.31,0.01,2.91-0.05,2.99-1.53c0.21-4.02,0.94-8.35-0.23-12.01
		c-0.9-2.83-5.01-0.83-7.64-1.35c-1.06-0.21-2.15-0.39-3.23-0.4c-8.64-0.03-17.28-0.02-25.95-0.02c0,16.88,0.01,33.38-0.02,49.87
		c0,1.93,0.78,2.9,2.75,2.9C228.1,546.66,239.43,546.67,251.44,546.67z M289,525.01c-1.09,0.8-1.65,1.48-2.33,1.66
		c-3,0.79-6.29,1.77-8.74-0.79c-2.71-2.83-3.17-6.47-1.14-9.94c1.72-2.94,5.11-4.93,7.88-3.49c4.72,2.45,6.72-0.41,9.28-3.01
		c1.85-1.89,3.68-3.79,5.61-5.6c1.99-1.86,1.62-3.32-0.32-4.99c-7.75-6.67-21.56-7.65-30.09-2.04
		c-16.55,10.88-16.97,33.44-0.84,44.92c9.07,6.46,21.86,6.27,30.57-0.33c1.89-1.43,3.13-2.66,0.88-4.76
		C296.02,533.15,292.46,529.46,289,525.01z M254.57,527.74c-1.74-5.2-0.89-10.23-0.51-15.25c-0.76-0.12-1.51-0.24-2.27-0.36
		c-0.95,4.01-0.27,8.34-0.4,12.49C251.34,526.13,250.46,528.66,254.57,527.74z"/>
	<path class="st0" d="M430.94,550.43c0,21.85,0,43.15,0,64.63c-9.04,0-17.86,0-26.95,0c0-6.28,0-12.45,0-19.5
		c-4.14,3.44-5.86,7.87-9.23,11.26c-3.47-3.14-5.42-7.49-9.08-11.47c0,6.86,0,13.09,0,19.9c-2.71,0-4.98,0-7.25,0
		c-14.81,0-29.63-0.06-44.44,0.05c-2.57,0.02-4.55-0.36-5.63-4.13c-0.89,3.65-2.63,4.25-5.3,4.16c-7.47-0.24-14.95-0.09-22.76-0.09
		c0-21.42,0-42.71,0-64.82c4.38,0,8.98,0,13.59,0c7.17,0,14.35,0,21.52,0.02c11.88,0.04,18.66,5.2,20.4,16.78
		c1.53,10.15,1.44,20.31-7.1,28.21c2.89,5.8,5.73,11.49,8.56,17.18c0.22-0.01,0.45-0.03,0.67-0.04c0-20.54,0-41.07,0-62.15
		c10.01,0,19.46,0.03,28.91-0.03c1.6-0.01,2.07,1.02,2.68,2.12c1.56,2.81,3.17,5.58,5.07,8.92c0.59-0.92,0.93-1.26,1.06-1.66
		c2.63-8.41,8.5-10.47,16.74-9.49C418.39,551,424.52,550.43,430.94,550.43z M393.97,567.16c-2.13-3.56-4.48-6.71-5.97-10.22
		c-1.2-2.84-2.8-3.56-5.63-3.49c-5.77,0.15-11.56,0.18-17.32-0.11c-3.35-0.16-4.27,1-4.23,4.24c0.22,15.29,0.19,30.59,0.34,45.88
		c0.03,2.6-0.57,5.29,0.6,7.89c6.82,0,13.57,0,20.72,0c0-8.4,0-16.42,0-25.72c4.45,5.64,8.12,10.31,12.24,15.54
		c4.04-5.47,7.71-10.44,12.15-16.44c0,8.64,0.09,15.81-0.04,22.97c-0.05,3.02,1.02,4.22,4.1,4.07c4.05-0.19,8.13-0.28,12.16,0.03
		c4,0.31,5.08-1.3,5.02-5.1c-0.19-12.33-0.01-24.66-0.13-36.98c-0.05-5.08-0.51-10.15-0.79-15.19c-7.09-1.46-13.83-0.75-20.51-1.17
		c-2.93-0.18-4.43,1-5.9,3.41C398.73,560.17,397.57,564.21,393.97,567.16z M324.25,598.55c0.25-0.12,0.49-0.24,0.74-0.35
		c1.88,3.42,3.73,6.86,5.64,10.26c0.74,1.31,1.11,3.18,3.03,3.2c6.15,0.08,12.31,0.03,19.36,0.03c-2.65-5.22-4.89-9.6-7.1-14.01
		c-0.82-1.64-1.79-3.03,0.11-4.94c7.28-7.36,9.49-20.48,5.06-29.76c-2.15-4.51-5.3-8.14-10.75-8.59c-11.33-0.93-22.69-1.01-34.06-1
		c-2.66,0-3.55,1.07-3.5,3.62c0.27,17.12,0.49,34.25,0.66,51.37c0.02,2.3,0.73,3.44,3.22,3.39c4.83-0.11,9.66-0.12,14.49,0
		c2.57,0.07,3.19-1.16,3.11-3.43C324.17,605.09,324.25,601.82,324.25,598.55z M327.64,611.33c0.1-0.1,0.28-0.19,0.29-0.29
		c0.01-0.11-0.16-0.22-0.24-0.34c-0.1,0.1-0.27,0.2-0.28,0.31C327.4,611.11,327.56,611.23,327.64,611.33z"/>
	<path class="st0" d="M183.37,496.14c-5.75,17.84-11.5,35.69-17.31,53.7c-6.6,0-12.98,0.05-19.36-0.03
		c-2.36-0.03-2.36-0.16-4.92-5.19c-0.88,5.72-4.79,5.39-8.77,5.26c-4.98-0.16-9.97-0.04-15.53-0.04
		c-6.14-19.47-12.3-38.98-18.58-58.88c8.6,0,16.9,0,25.65,0c1.37,3.92,2.84,8.11,4.64,13.28c1.32-4.93,2.4-8.98,3.56-13.32
		c5.9,0,11.92,0,18.18,0c1.07,3.91,2.17,7.93,3.41,12.49c2.38-3.22,2.68-6.83,4.01-9.99c0.63-1.49,0.87-2.8,3.01-2.79
		c16.04,0.08,32.08,0.04,48.36,0.04c0,19.77,0,39.19,0,58.91c-8.28,0-16.47,0-25.1,0c0-17.75,0-35.46,0-53.16
		C184.2,496.32,183.78,496.23,183.37,496.14z M103.55,493.7c-0.11,1.08-0.38,1.76-0.2,2.29c5.32,16.22,10.69,32.42,16.02,48.64
		c0.38,1.15,0.91,2.06,2.18,2.06c4.98,0,10.16,0.72,14.88-0.43c2.93-0.72,2.58-5.62,4.41-8.29c0.14-0.2,0.51-0.25,0.94-0.45
		c2.64,2.46,2.43,7.46,5.51,8.71c3.24,1.31,7.38,0.17,11.07,0.61c4.16,0.5,5.7-1.47,6.8-5.1c3.34-11,7.13-21.86,10.42-32.88
		c1.43-4.8,3.72-9.4,4.25-15.36c-4.88,0-9.37,0.22-13.83-0.07c-3.34-0.22-5.08,0.72-5.99,4.13c-1.59,5.93-3.66,11.73-5.89,18.69
		c-1.81-6.66-3.37-12.3-4.85-17.96c-0.35-1.36-0.31-3.14-1.63-3.71c-3.68-1.58-7.71-1.53-11.49-0.81c-2.52,0.48-1.88,3.64-2.48,5.61
		c-1.55,5.05-1.7,10.5-4.37,16.54c-2.34-6.97-4.44-12.78-6.2-18.68c-0.71-2.37-2.08-3.47-4.28-3.52
		C113.85,493.62,108.89,493.7,103.55,493.7z M205.9,546.44c0.85-1.81,0.6-3.54,0.6-5.22c-0.01-10.76-0.04-21.51-0.07-32.27
		c-0.06-16.34-0.06-16.34-16.66-15.42c-0.59,0.03-1.17,0.25-1.82,0.39c0,17.54,0,34.9,0,52.51
		C194.16,546.44,200,546.44,205.9,546.44z"/>
	<path class="st0" d="M122.54,615.25c-0.94-2.02-1.78-3.84-2.63-5.67c-0.28,0.06-0.75,0.06-0.77,0.17
		c-1.31,5.39-5.17,5.91-9.86,5.57c-4.5-0.33-9.04-0.12-13.55-0.06c-1.85,0.02-3.05-0.16-3.74-2.41
		c-6.37-20.62-12.9-41.19-19.54-62.26c8.74,0,17.11,0.07,25.48-0.05c2.1-0.03,2.59,1.11,3.1,2.68c1.32,4.08,2.74,8.14,4.52,13.4
		c1.53-5.99,2.74-10.71,4.04-15.82c6.32,0,12.63,0,19.49,0c1.26,4.61,2.63,9.58,4.33,15.79c2.05-6.01,3.66-10.76,5.4-15.84
		c9.03,0,18.11,0,27.61,0c-4.25,13.36-8.41,26.53-12.62,39.68c-2.32,7.26-4.82,14.46-7.03,21.75c-0.63,2.07-1.25,3.18-3.68,3.12
		C136.24,615.15,129.39,615.25,122.54,615.25z M76.87,553.74c1.34,6.69,3.62,12.89,5.7,19.16c3.84,11.58,7.65,23.18,11.57,34.74
		c0.46,1.34,0.41,3.58,2.36,3.65c5.44,0.18,10.99,0.61,16.32-0.19c3.65-0.55,3.14-5.33,4.94-7.95c0.41-0.59,0.38-1.55,1.42-1.69
		c1.23,0.33,1.58,1.59,1.79,2.49c1.51,6.54,5.66,8.54,11.95,7.58c3.35-0.51,7.34,1.2,10.03-0.77c2.37-1.73,2.59-5.49,2.6-8.67
		c0-0.14,0.12-0.28,0.18-0.43c6.13-14.44,9.97-29.67,15.26-44.39c1.03-2.88-0.19-3.68-2.79-3.7c-4.05-0.02-8.13,0.16-12.16-0.22
		c-3.72-0.34-5.65,0.77-6.66,4.55c-1.81,6.71-4.13,13.28-6.56,20.93c-1.99-8.02-3.7-14.87-5.39-21.72
		c-0.49-1.99-1.41-3.02-3.76-3.27c-11.61-1.25-11.61-1.35-14.42,9.91c-0.22,0.9-0.19,1.86-0.4,2.76c-0.87,3.73-1.79,7.46-2.95,12.31
		c-2.6-7.93-4.79-14.58-6.95-21.23c-0.53-1.62-0.75-3.48-3.04-3.55C89.71,553.84,83.52,552.82,76.87,553.74z"/>
	<path class="st0" d="M462.22,615.02c0-21.64,0-42.94,0-64.34c15.91,0,31.59,0,47.51,0c0,7.68,0,15.1-0.01,22.52
		c-0.82,1.29-2.38,0.28-3.57,1.23c0,5.43,0,11.01,0,16.88c0.57,1.45,2.61-0.12,3.64,1.43c0,7.18,0,14.61,0,22.28
		C493.93,615.02,478.25,615.02,462.22,615.02z M464.8,553.54c0.19,18.96-0.16,37.33,0.7,55.7c0.1,2.11,1.29,2.53,3.09,2.52
		c11.7-0.03,23.41-0.02,35.11-0.01c1.74,0,3.22-0.36,3.2-2.46c-0.03-4.46,0.48-8.95-0.46-14.04c-5.43,0-10.71,0.08-15.99-0.05
		c-1.61-0.04-4.24,0.97-4.11-2.18c0.11-2.71,2.45-1.78,3.98-1.89c3.97-0.28,8.01,0.43,11.89-0.42c0.14-1.1,0.27-1.71,0.29-2.33
		c0.41-13.4,0.41-13.39-12.96-14.32c-1.29-0.09-3.09,0.45-3.18-1.73c-0.1-2.48,1.84-2.06,3.32-2.07c5.57-0.04,11.14-0.02,16.95-0.02
		c0.38-5.59,0.44-10.62,0.01-15.73C492.66,553.53,479.14,553.24,464.8,553.54z"/>
	<path class="st0" d="M355.24,549.62c-15.7,0-31.4,0-47.56,0c0-6.04,0.03-11.92-0.02-17.8c-0.01-1.77,1.12-2.85,2.1-4.03
		c4.07-4.92,8.17-9.82,12.77-15.33c-5.13,0-9.77,0-14.64,0c0-7.51,0-14.43,0-21.66c15.92,0,31.61,0,47.31,0
		c0.05,6.53,0.1,13.06,0.15,19.59c-4.65,5.7-9.31,11.39-14.59,17.86c5.51,0,9.98,0,14.45,0
		C355.21,535.38,355.22,542.5,355.24,549.62z M328.9,509.27c-4.16,5.18-7.2,9.73-11.01,13.51c-5.53,5.51-7.29,11.82-6.74,19.42
		c0.26,3.57,1.47,4.56,4.72,4.53c11.24-0.08,22.47-0.03,33.71-0.04c0.92,0,1.9,0.1,2.45-0.67c0-4.75,0-9.37,0-14.14
		c-6.04-0.41-11.75-0.79-17.6-1.18c0.02-1.7,0.87-2.84,1.95-3.71c4.06-3.25,6.54-7.96,10.35-11.33c6.7-5.94,6.15-13.26,5.17-20.99
		c-12.93-1.68-25.72-0.98-38.48-1.19c-1.58-0.03-2.95,0.41-2.83,2.26c0.27,4.45,0.71,8.88,1.1,13.51
		C317.35,509.27,322.48,509.27,328.9,509.27z"/>
	<path class="st0" d="M407.67,549.62c-7.16,0.08-14.32-0.01-21.47,0.33c-2.67,0.13-2.76-1.92-4.41-3.84
		c0.6,2.88-0.24,3.87-2.69,3.79c-7.31-0.22-14.62-0.21-21.93-0.28c-0.29-7.26,0.56-14.54-0.45-21.78c0-5.73,0-11.47,0-17.2
		c1.01-6.59,0.1-13.23,0.51-19.83c17.19-0.88,22.48-0.51,24.7,1.71c2.58-2.27,7.81-2.62,25.71-1.71
		C407.64,510.41,407.66,530.01,407.67,549.62z M360.19,493.52c0,17.94,0,35.32,0,52.9c6.21,0,12.04,0,18.35,0
		c0-6.88,0-13.47,0-20.07c2.81,5.54,4.74,11.22,6.6,16.91c0.55,1.67,0.92,3.44,3.15,3.45c5.4,0.04,10.81,0.01,16.16,0.01
		c0-18.05,0-35.42,0-52.93c-6.26,0-12.12,0-18.37,0c0,6.96,0,13.65,0,20.33c-2.58-5.46-4.55-10.99-6.3-16.59
		c-0.64-2.05-1.6-2.97-3.81-3.36C370.85,493.29,365.75,493.66,360.19,493.52z"/>
	<path class="st0" d="M435.84,490.65c1.2,0,2.11,0,3.01,0c13.39,0,26.77,0,40.48,0c0,6.99,0,13.78,0,21.35
		c-0.3,1.05-2.44-0.46-3.33,0.97c0,4.71,0,9.53,0,14.7c3.22,0.04,3.88,1.91,3.71,4.99c-0.3,5.55-0.09,11.14-0.09,16.96
		c-14.75,0-29.14,0-43.79,0C435.84,530.06,435.84,510.65,435.84,490.65z M439.02,493.6c-0.27,0.9-0.51,1.33-0.51,1.76
		c0.04,15.91,0.18,31.83,0.12,47.74c-0.01,3.28,1.99,3.51,4.24,3.54c6.24,0.09,12.48,0.07,18.72,0.08c4.77,0.01,9.55,0,14.66,0
		c0-3.38-0.29-6.06,0.06-8.65c0.68-5.04-1.06-6.7-6.29-6.71c-4.06-0.01-8.49,0.4-12.48-1.83c4.56-2.79,9.81-0.56,14.7-2.07
		c0.32-4.72,0.45-9.32-0.06-13.73c-4.82-2.13-9.96-0.73-14.64-3.08c5.89-2.08,12.11-0.89,18.25-1.73c0.67-4.82,0.6-9.39,0.01-14.21
		C463.49,493.6,451.41,493.31,439.02,493.6z"/>
	<path class="st0" d="M298.31,583.25c-0.34,18.64-14.7,32.38-33.44,31.99c-17.53-0.36-31.52-15.09-31.27-32.92
		c0.26-18.18,15.1-32.12,33.81-31.76C284.56,550.9,298.63,565.78,298.31,583.25z M265.82,611.76c16.53,0.01,28.94-12.38,28.97-28.93
		c0.03-15.69-13.43-29.25-29.08-29.31c-15.76-0.06-29.45,13.64-29.21,29.23C236.74,598.59,250.04,611.75,265.82,611.76z"/>
	<path class="st0" d="M433.22,550.59c8.87,0,17.56,0,26.61,0c0,21.34,0,42.75,0,64.41c-8.74,0-17.54,0-26.61,0
		C433.22,593.61,433.22,572.2,433.22,550.59z M436.12,553.44c0,19.68,0,38.77,0,57.93c7.18,0,13.93,0,20.77,0
		c0-19.18,0-37.96,0-56.75C449.94,553.08,443.25,553.57,436.12,553.44z"/>
	<path class="st0" d="M409.66,490.81c8.22,0,16.43,0,24.94,0c0,19.62,0,39,0,58.81c-8.32,0-16.65,0-24.98,0
		C409.63,530.01,409.65,510.41,409.66,490.81z M412.59,546.36c6.53,0,12.37,0,18.15,0c0-17.47,0-34.55,0-51.6
		c-6.31-1.79-12.23-1.36-18.15-0.04C412.59,511.99,412.59,529.08,412.59,546.36z"/>
	<path class="st1" d="M356.72,527.84c1.01,7.24,0.16,14.52,0.45,21.78c-0.64,0-1.29,0-1.93,0c-0.01-7.12-0.03-14.24-0.04-21.36
		C355.7,528.12,356.21,527.98,356.72,527.84z"/>
	<path class="st2" d="M307.12,354.38c2.02-1.39,3.59-2.67,5.34-3.64c8.95-4.94,17.82-1.95,22.12,7.26
		c2.52,5.4,2.43,11.88,7.06,16.45c1.52,1.5,0.01,2.64-1.26,3.73c-4.08,3.49-6.14,7.87-5.89,14.75c3.99-6.91,6.95-13.21,15.07-12.43
		c1.64,1.4-0.92,3.19,1.13,4.58c4.39-4.61,7.59-14.59,16.64-5.29c-2.95,3.73-2.95,3.73-7.33,0.32c-0.68,2.67,0.65,5.82-2.88,7.57
		c6.17,1.69,5.26,9.4,11.7,9.7c-4.27,4.32-6.71,4.35-12.71,0.77c-1.21,0.65-0.58,1.57-0.32,2.41c1.17,3.73-0.93,5.14-4.11,5.7
		c-2.44,0.44-4.94,0.61-7.35,1.17c-4.86,1.13-9.28-0.1-10.9-4.45c-2.18-5.85-4.89-11.83-2.12-18.46c1.19-2.86,2.49-6.03,0.57-9.32
		c-1.35,1.09-10.86,18.6-11.12,20.29c0.8,0.57,1.44-0.03,2.12-0.31c0.56-0.23,1.12-0.46,1.64-0.68c2.38,3.44,4.08,10.94,3.87,17.5
		c-11.25-1.07-22.16-0.77-27.48,13.69c-1.49-2.17-2.16-3.42-3.09-4.44c-8.08-8.84-18.06-13.57-30.09-13.96
		c-9.62-0.32-18.7-3.07-27.72-6.2c-2.31-0.8-3.79-1.98-2.6-4.34c6.22-12.28,3.79-25.04,2.89-37.93c-1.94-27.75,2.56-54.97,8.6-81.94
		c3.85-17.18,8.62-34.09,16.75-49.86c0.91-1.77,1.12-3.52,0.44-5.41c-0.31-0.87-0.54-1.78-0.66-2.7c-0.11-0.91-0.02-1.83-0.02-3.12
		c3.25,0.17,6.46-1.72,9.11,1.44c-0.01,1.33-1.36,2.49-0.45,4.32c8.12-4.02,16.48-7.46,25.83-7.86c-5.63,2.39-9.17,8.86-14.57,9.91
		c-8.51,1.65-7.12,6.9-7.1,12.37c0.05,12.95-1.88,25.75-3.1,38.89c-7.27,0.58-13.39,3.22-14.51,11.17
		c-1.23,8.7,5.12,12.65,11.79,16.28c-1.19,5.57-2.58,11.2-0.45,17.02c-2.21,0.61-3.8-1.85-6.36-0.21
		c13.03,10.8,24.72,22.57,34.16,37.92c0.39-4.87-2.16-7.48-3.05-11.05c3.93,1.19,7.56,2.87,11.57,2.7
		C308.6,350.78,305.38,351.92,307.12,354.38z M264.4,376.75c-4.14-12.86-4.31-25.68-5.1-38.61c-6.51,2.86-5.03-5.13-9.29-5.27
		c0.47,4.73,1.59,9.15,4.6,12.86c1.67,2.05,2.33,4.18,2.15,6.82c-0.45,6.88,0.33,13.64,2.9,20.09
		C260.3,374.25,260.46,376.4,264.4,376.75z M305.16,394.46c-1.88-5.3-6.09-5.32-9.63-5.56c-2.83-0.2-6.36-0.27-8.24,4.02
		C293.48,393.45,299.01,393.92,305.16,394.46z M257.8,284.48c-3.04-2.92-3.97-5.76-3.12-9.98c-6.73,5.16-1.51,10.51-2.7,16.25
		C254.77,288.55,254.7,285.5,257.8,284.48z M300.11,416.35c-1.71-2.69,1.14-5.52-0.68-8.39c-1.57,1.71-1.64,3.82-2.13,5.64
		c-0.52,1.93-0.63,4.05,1.69,5.27c1.74,0.91,3.1,0.09,4.1-1.1c1.62-1.93,0.8-3.73-0.73-5.33
		C300.93,413.34,302.63,415.68,300.11,416.35z M301.01,366.64c-0.39-0.03-0.78-0.06-1.18-0.09c-0.61,4.72-1.22,9.45-1.84,14.17
		C301.59,376.38,301.1,371.48,301.01,366.64z M270.61,371.14c-1.1,3.05,0.05,4.84,2.71,6.9
		C275.15,374.29,273.93,372.53,270.61,371.14z M315.21,388.46c4.49,0.52,4.69,0.37,4.63-3.63C317.9,385.41,316,385.79,315.21,388.46
		z M350.85,396.97c2.98-3.54,2.85-4.29-0.39-6C349.47,392.85,350.69,394.44,350.85,396.97z"/>
	<path class="st1" d="M127.69,215.32c-0.1,5.04,2.78,9.12,4.48,13.56c2.46,6.43,1.76,11.61-2.69,15.69
		c-4.35,3.99-10.03,4.48-16.11,1.22c-0.44,2.08,1.92,3.64,0.95,6.02c-2.72-2.12-2.6-5.64-4.84-8.17c-1.6,4.88-2.33,10.07-7.19,12.77
		c-4.68,2.6-9.37,3.44-14.12-0.22c1.34,8.21,3.75,9.65,10.96,6.63c2.69-1.12,5.48-1.85,8-3.63c2.38-1.69,5.4-1.63,6.89,1.92
		c4.68,11.16,9.15,22.42,14.16,33.43c1.54,3.38-2.08,6.41,1.17,9.47c-5.59,2.3-10.46,4.31-15.25,6.27
		c-9.48-5.37-12-15.29-16.11-23.93c-4.54-9.55-8.17-19.53-12.25-29.3c-1.08-2.6-2.16-5.26-5.01-7.68
		c2.34,16.1-4.79,22.88-17.96,18.17c-0.58,0.83,0.11,1.44,0.4,2.09c3.48,8,3.53,7.92,11.46,3.8c3-1.55,5.57-3.86,9.82-3.05
		c3,0.57,4.84,2.14,5.5,4.06c3.61,10.45,8.51,20.36,12.64,30.59c1.38,3.42-1.58,6.45,0.99,9.56c-4.43,1.88-8.36,3.74-12.43,5.21
		c-5.37,1.94-9.12-0.02-11.36-5.39c-11.72-28.16-23.47-56.31-35.22-84.45c-1.52-3.65-0.05-8.03,3.55-9.67
		c3.97-1.81,8.13-3.21,12.05-5.12c3.3-1.6,5.02,1.96,8.06,1.91c2.32-9.82,11.9-9.46,18.88-12.56c2.16-0.96,6.1,0.91,6.93,4.71
		c0.56,2.59,1.66,4.87,4,7.86c0.03-4.01-1.73-6.26-2.6-8.71c-1.54-4.35-0.57-7.35,3.73-9.26c3.41-1.52,6.88-2.91,10.33-4.32
		c4.78-1.95,8.47-0.42,10.54,4.36c0.78,1.79,0.78,4.04,2.99,4.95l-0.04-0.06c0.51,4.21,1.22,8.34,4.72,11.3L127.69,215.32z
		 M79.93,246.29c-0.21-0.58-0.06-1.5-1.31-1.25c-0.02,0.97,0.72,1.03,1.35,1.2c0.26,0.57,0,1.52,1.07,1.49
		c0.1,0,0.28-0.18,0.29-0.29C81.42,246.39,80.52,246.53,79.93,246.29z M70.37,223.54c1.76,4.38,3.53,8.76,5.29,13.13
		c0.53-0.22,1.06-0.45,1.59-0.67C75.08,231.79,74.1,227.08,70.37,223.54z M106.43,237.39c0.34-0.2,0.67-0.41,1.01-0.61
		c-1.71-3.9-3.42-7.79-5.13-11.69C102.46,229.71,103.94,233.75,106.43,237.39z M69.07,218.46c-0.44,1.38-0.49,2.53,1.1,3.28
		C70.9,220.11,70.23,219.23,69.07,218.46z M107.31,239c-0.5,1.76,0,2.64,1.5,3.29C109.04,240.86,108.75,239.84,107.31,239z"/>
	<path class="st2" d="M332.5,230.54c0.47,8.7,6.61,13.41,12.74,17.47c19.64,13.02,19.81,33.05,11.02,51.05
		c-2.12,4.35-4.64,8.47-7.48,12.4c-1.89,2.61-1.95,4.8,1.98,5.08c4.56,0.32,7.78,2.49,8.99,6.82c0.84,3.04-0.28,5.87-2.96,7.83
		c-3.84,2.82-7.79,1.8-11.48-0.11c-5.42-2.81-5.13-2.81-8.57,2.4c-6.9,10.46-17.66,11.79-28.89,11.46
		c-5.11-0.15-9.6-2.31-13.73-5.88c6.31,2.99,12.05-0.99,18.13-0.91c6.9,0.09,12.71-4.09,15.05-10.55c1.76-4.87,1.79-4.89,7.02-3.62
		c-0.31-3.28-1.79-5.58-4.42-7.24c-1.9-1.2-2.13,0.9-3.23,1.76c-2.55-3.98-6.43-5.25-10.83-5.44c-3.89-0.17-7.14-2.05-10.31-4.04
		c-3.93-2.46-7.8-5-12.69-5.01c0.18-2.2,2.84-0.49,3-2.35c-3.99-2.15-5.92-2-9.47,0.73c0.22,2,2.73,0.22,3.29,2.4
		c-11.59,10.3-2.13,20.51,1.03,30.99c-12.14-4.09-19.39-23.92-13.6-37.18c-5.34-2.02-11.09-3.82-11.64-10.86
		c-0.2-2.6,0.07-5.2,2.68-6.56c2.5,3.98-1.87,9.84,3.77,12.86c2-1.82-0.82-3.94,1.11-5.44c2.22,1.44,2.03,4.4,3.78,6.15
		c3.14-3.81,2.21-6.06-5.48-13.58c3.28-0.84,6.11-0.34,8.38,2.3c0.92,1.08,1.91,2.24,3.54,1.59c1.59-0.63,1.59-2.14,1.63-3.57
		c0.19-7.66,0.75-15.25,3.37-22.56c4.6-12.86,16.13-20.33,29.78-19.22c3,0.24,5.12,0.79,5.56,4.71c0.55,4.92,3.08,9.15,7.74,11.61
		c1.71,0.9,3.73,1.68,4.98-0.42c1.35-2.27-1-2.81-2.32-3.67C326.61,247.17,325.74,236.71,332.5,230.54z M338.36,291.18
		c2.44-0.64,5.13,1.13,8.09-1.05c-3.3-4.22-8.63-4.76-12.09-8.42c-2.07,4.69,1.84,6.08,3.17,8.6c-7.21,0.35-7.52,8.49-12.95,11.38
		c3.93,0.72,6.11,4.03,9.09,5.51C336.49,302.04,336.84,296.46,338.36,291.18z M307.84,293.24c-2.72-4.9,0.65-9.52-1.31-13.92
		c-0.48-1.08-0.17-2.72-1.5-3.44c-1.54-0.84-2.63,0.29-3.6,1.29c-1.57,1.6-2.33,3.64-2.87,5.76c-0.77,3.03,0.05,6.63-3.6,8.86
		C299.31,291.69,303.18,292.51,307.84,293.24z M350.72,324.24c-0.06,2.1-3,1.84-2.91,4.13c5.5,2.86,6.62-3.99,10.71-4.33
		c-1.66-4.1-4.75-4.27-7.91-4c-3.09,0.27-6.06,0.93-7.16,4.78C346.11,326.04,348.1,323.6,350.72,324.24z M301,263.36
		c3.11,6.32,11.84,8.57,16.56,3.94C312,265.52,307.12,262.32,301,263.36z M310.54,299.2c-3.5-0.16-4.67,1.77-4.76,3.89
		c-0.12,3.06,1.65,5.23,4.68,6.15c3.3,1,6.65,1.23,8.93-1.76c1.08-1.41,1.27-3.67-1.19-5.06c-0.97,1.85-0.27,4.53-3.21,4.66
		c-2.28,0.1-4.3-0.29-5.93-2.01C306.95,302.85,309.77,301.63,310.54,299.2z"/>
	<path class="st1" d="M506.05,221.89c-2.5,3.06-3.94,6.75-4.98,10.39c-2.12,7.44-7.72,13.04-9.88,20.52
		c-1.89,6.55-6.31,8.65-12.54,7.82c-5.8-0.77-9.76-5-10.54-11.33c-1.67,0.02-0.8,2.15-2.82,2.62c-0.24-5.73,4.35-10.07,4.94-16.28
		c-3.87,2.3-4.08,5.76-5.45,8.26c-2.37,4.33-5.18,6.85-10.23,6.41c-5.21-0.45-9.11-2.86-11.42-7.63c-0.33-0.69-0.61-1.4-1.03-2.39
		c-2.22,2.66-2.44,5.74-3.32,8.65c3.13,3.7,7.37,4.92,11.85,5.73c7.44,1.34,8.52,3.17,5.76,9.94c-3.99,9.79-8.5,19.38-11.93,29.36
		c-1.46,4.25-6.28,4.47-7.22,8.68c-5.63-2.35-10.92-4.57-16.27-6.8c2.32-3.58,0.59-7.31,1.31-10.92c1.58-7.86,5.22-14.76,8.1-21.99
		c7.86-19.7,16.08-39.25,24.13-58.87c0.39-0.96,1.23-1.86,0.45-3.86c-2.18,4.47-3.98,8.51-6.08,12.38
		c-3.03,5.6-5.29,11.51-7.66,17.4c-2,4.99-4.83,9.9-11.13,9.83c-5.21-0.06-11.23-2.36-13.49-10.57c-0.99,1.64-1.87,3.1-3.19,5.31
		c-0.38-4.2,1.55-6.8,2.67-9.56c4.67-11.54,9.51-23.01,14.27-34.51c1.63-3.93,5.76-5.68,9.82-4.07c2.75,1.09,5.4,2.46,8.22,3.31
		c4.59,1.38,7.05,4.24,7.12,9.41c3.79-3.1,7.48-4.07,11.82-1.56c2.81,1.62,5.98,2.63,9.03,3.8c1.85,0.71,3.28,1.58,3.53,3.83
		c0.22,1.99,1.61,3.48,3.53,2.55c5.21-2.53,9.35,0.52,13.68,2.29c3.41,1.39,7.55,1.74,8.85,6.55c0.54,1.99-0.09,3.61,0.05,5.38
		C506.01,221.95,506.05,221.89,506.05,221.89z M474.13,227.09c-2.98,3.27-3.4,4.62-2.41,8.29
		C472.49,232.33,474.09,230.47,474.13,227.09z M478.69,216.05c-1.66,2.02-2.78,3.43-2.28,5.68
		C477.97,220.35,478.83,218.86,478.69,216.05z M475.76,222.97c-1.21,1.01-1.95,1.88-1.22,3.29
		C475.8,225.65,476.23,224.73,475.76,222.97z M479.72,214.53c-0.11-0.24-0.22-0.47-0.33-0.71c-0.11,0.09-0.3,0.18-0.3,0.28
		c-0.01,0.25,0.06,0.5,0.1,0.75C479.36,214.75,479.53,214.65,479.72,214.53z"/>
	<path class="st2" d="M335.63,482.26c3,0.74,6.39-2.54,8.33,2.12c-8.23,0-16.18,0-24.17,0c-0.68-2.82-0.58-5.64,1.28-7.64
		c5.79-6.25,7.01-14.04,8.13-21.95c1.08-7.66,3.36-15.03,6.11-23.56c-4.41,1.19-4.53,5.23-6.87,6.84c-1.89-0.42-0.52-2.67-3.18-3.97
		c0.16,10.55-0.32,20.58-3.3,30.23c-9.42-0.95-17.3-12.68-12.67-20.94c9.08-16.19,22.92-27.63,41.16-31.97
		c10.07-2.4,19.02,8.62,17.37,19.57c-1.41,9.34-5.66,17.37-11.19,24.87c-3.51,4.76-7.1,9.5-10.17,14.55
		c-1.64,2.69-3.4,3.52-6.34,3.12c-2.31-0.32-4.67-0.14-7.12,1.03c8.12,2.58,16.76,3.91,24.8,10.07c-5.04-0.31-8.93,1.72-11.51-3.79
		C344.48,476.95,339.34,477.8,335.63,482.26z M352.87,426.1c1.95,3.41,4.27,4.34,7.18,4c2.09-0.25,3.89-0.98,3.45-4.06
		C360.18,426.82,356.93,426.33,352.87,426.1z"/>
	<path class="st2" d="M247.3,464.3c-3.29-9.99-3.59-20.11-3.44-30.45c-2.95,0.78-1.42,3.3-3.13,3.97c-2.84-2.18-2.88-6.85-6.8-8.15
		c-1.27,1.09-0.71,2.24-0.3,3.12c4.34,9.15,5.59,19.06,7.29,28.87c0.81,4.68,2.19,9.04,5.43,12.7c2.34,2.64,3.74,5.71,2.72,9.76
		c-7.94,0.76-15.88,0.36-24.2,0.37c2.19-5.2,5.82-1.43,8.65-2.46c-1.52-2.7-3.57-3.83-6.53-3.61c-3.79,0.27-5.17,2.92-6.04,5.9
		c-3.1,0-5.98,0-9.92,0c7.92-6.14,16.54-7.62,25.72-9.54c-2.5-1.54-4.43-2.2-6.13-1.67c-4.75,1.48-6.81-1.02-9.05-4.66
		c-3.57-5.78-7.79-11.14-11.67-16.73c-4.39-6.31-7.56-13.2-9.08-20.73c-2.41-12.01,9.22-23.04,20.88-19.38
		c15.08,4.73,26.99,14.37,35.86,27.16C264.7,449.03,259.52,461.05,247.3,464.3z M205.62,426c-0.2,3.15,1.45,4.07,3.9,4
		c2.75-0.07,5.48-0.3,6.18-4.47C212.16,426.58,208.92,426.13,205.62,426z"/>
	<path class="st3" d="M237.23,404.56c12.59,3.73,25.42,6.78,38.68,7.68c1.44,4.94-0.86,9.02-2.02,13.24
		c-0.93,3.39-0.41,4.73,3.63,4.58c6.4-0.24,12.77,0.99,18.8,3.09c4.03,1.4,7.05,4.39,7.19,9.19c0.18,6.01-1.1,11.74-3.18,17.36
		c-0.78,2.09-2.18,2.84-4.2,3.06c-5.71,0.61-11.42,1.75-17.15,0.09c-0.73-0.21-1.52-0.32-2.44,1.11c7.96,2.54,15.69,2.45,23.05-0.68
		c2.75-1.17,3.11-5.24,4.56-8.37c2.56,6.1,6.42,10.81,12.56,13.8c-10.13,6.02-21.15,7.17-32.4,6.97
		c-11.09-0.2-22.37,0.21-32.13-6.93c8.72-4.74,13.66-11.85,13.49-22.14c-0.08-4.44-2.2-8.01-4.37-11.57
		c-4.91-8.06-12.94-12.89-20.01-18.63C237.19,413.06,232.57,410.73,237.23,404.56z"/>
	<path class="st1" d="M123.05,204.14c0.07-2.28-1.08-4.19-1.91-6.18c-1.76-4.23-0.58-7.7,3.54-9.5c3.7-1.62,7.46-3.11,11.26-4.5
		c3.71-1.36,7.87,0.14,9.26,3.89c3.11,8.39,8.04,16.1,9.17,25.27c0.32,2.63,2.02,5.1,3.12,7.63c1.89,4.32,2.04,8.4-1.38,12.12
		c-3.74,4.07-8.4,5.03-13.62,4.11c-1.21-0.21-2.38-0.65-3.57-0.99c-0.1-0.08-0.19-0.17-0.29-0.25c0.11,0.07,0.22,0.14,0.33,0.21
		c1.32,2.95,2.64,5.91,3.66,8.19c6.96,1.45,11.39-3.49,16.98-5.03c3.02-0.84,4.76-0.34,6.07,2.96c4.02,10.07,8.14,20.12,12.88,29.86
		c1.87,3.85-0.64,7.52,1.13,11.26c-4.45,1.85-8.87,3.78-13.35,5.53c-3.39,1.33-7.65-0.48-9.1-3.94
		c-7.37-17.49-14.61-35.03-22.01-52.5c-2.41-5.69-4.1-11.72-7.54-16.96c0,0,0.05,0.06,0.05,0.06c-0.84-4.07-2.27-7.9-4.72-11.3
		L123.05,204.14z"/>
	<path class="st1" d="M490.81,261.96c2.66-10.73,8.48-20.18,12.29-30.44c1.16-3.13,3.26-6.03,2.96-9.63c0,0-0.05,0.06-0.05,0.06
		c4.97-5.66,6.25-5.91,13.54-2.76c2.28,0.99,4.59,1.92,6.89,2.89c4.94,2.09,6.11,5.77,4.38,10.68
		c-4.12,11.68-11.21,21.95-15.47,33.58c-1.39,3.79-5.33,5.26-9.26,5.24c-6.23-0.03-11.41-4.83-12.6-11.68
		c-0.85,1.02-1.48,1.78-2.1,2.54C491.19,262.29,490.99,262.13,490.81,261.96z"/>
	<path class="st1" d="M154.05,293.71c-3.97,1.73-7.5,3.36-11.1,4.83c-5.62,2.3-9.64,0.37-12.31-5.25
		c-5.46-11.47-9.66-23.46-14.68-35.11c-0.65-1.51-1.03-3.14-1.32-5.08c4.75,5.16,9.19,2.36,13.46-0.15
		c3.49-2.05,7.24-2.45,11.63-2.71C143.7,264.88,154.46,277.26,154.05,293.71z"/>
	<path class="st1" d="M491.38,262.44c-0.05,0.46-0.13,0.93-0.13,1.39c0.01,2.57-3.11,5.26-1.07,7.36c2.57,2.65,5.86,4.81,9.65,5.79
		c1.65,0.43,3.35,0.74,4.91,1.38c3.17,1.31,4,3.89,2.8,6.89c-3.46,8.64-7.41,17.09-10.52,25.85c-1.78,5-4.75,8.74-9.39,12.29
		c-4.48-1.84-9.62-3.96-15.15-6.23c1.57-3.06-2.19-5.39-1.03-8.51c1.24-3.32,2.5-6.63,3.83-9.92c4.74-11.63,9.5-23.25,14.29-34.86
		c0.28-0.69,0.82-1.28,1.23-1.91C490.99,262.13,491.19,262.29,491.38,262.44z"/>
	<path class="st1" d="M411.98,241.62c5.28,2.65,10.41,4.75,15.59,6.77c2.55,1,3.99,4.01,2.56,7.37c-3.86,9.1-7.95,18.13-11.23,27.44
		c-1.4,3.98-5.34,5.01-7.16,8.47c-4.92-1.77-10.21-2.98-14.59-5.67c-1.33-0.81-4.1-4.82-2.81-7.78
		c6.19-14.19,10.81-29.04,17.81-42.88c0.04-0.08,0.28-0.05,0.8-0.14C414.14,237.54,411.87,239.44,411.98,241.62z"/>
	<path class="st1" d="M464.15,253c1.22,2.73,0.27,3.81-0.02,4.97c-1.46,5.96-1.12,5.84,4.5,8.1c4.1,1.64,7.92,4.13,12.06,5.86
		c1.46,0.61,1.76,1.84,1.06,3.49c-4.39,10.45-8.71,20.92-12.95,31.42c-1.21,3-5.67,2.27-5.94,6.3c-4.89-2.02-9.43-3.64-13.73-5.73
		c-3.99-1.94-3.81-6.26-2.93-9.33C450.57,282.75,458.17,268.71,464.15,253z"/>
	<path class="st1" d="M294.95,208.64c-1.16-3.59,0.25-4.78,3.3-4.51c10.93,0.98,21.86,1.35,32.8,3.23
		c9.11,1.56,18.44,2.32,27.56,4.27c16.3,3.49,32.17,8.4,47.61,14.68c0.29,0.12,0.59,0.21,0.86,0.36c1.33,0.7,3.22,1.11,2.44,3.26
		c-0.95,2.63-2.77,1.23-4.23,0.64c-13.75-5.5-27.8-10.02-42.22-13.4c-21.4-5.03-43.09-7.88-65.08-8.38
		C297.08,208.77,296.15,208.7,294.95,208.64z"/>
	<path class="st1" d="M312.35,334.98c1.58-6.26,1.2-11.94-1.97-17.16c-1.79-2.95-5.09-4.31-8.1-2.69c-4.65,2.5-10.48,3.27-13.29,8.7
		c-3.21-4.54-2.82-11.95,0.57-15.12c3.16-2.95,7.85-3.03,12.29,0.75c5.04,4.3,11.2,5.76,17.12,7.71c6.5,2.13,8.68,7.12,4.61,12.58
		C320.82,333.46,317.15,335.45,312.35,334.98z"/>
	<path class="st1" d="M263.51,205.67c0.74,2.69-0.02,3.95-3.07,4.16c-14.39,0.98-28.6,3.3-42.75,6.12
		c-2.31,0.46-5.32,1.63-6.75-1.91C216.75,210.26,256.39,203.98,263.51,205.67z"/>
	<path class="st3" d="M306.09,437.33c-2.99-12.43-0.47-15.63,12.46-15.64c-0.92-1.92,3.1-3.46,0.03-5.68c2.98,0,5.94,0,9.04,0
		c-1.03,2.85-2.81,0.12-4.37,1.27c-0.08,1.08,0.87,2.52-1.03,3.89C316.04,425.61,310.56,430.88,306.09,437.33z"/>
	<path class="st3" d="M297.96,429.1c-6.42-1.83-12.98-2.82-19.75-3.26c0.59-4.02,2.61-7.53,2.56-11.89
		c6.53,3.27,12.28,7.1,16.61,12.82c0.54,0.71,1.3,1.42,0.51,2.43L297.96,429.1z M284.63,423.78c1.49-0.12,2.6-0.51,2.36-2.23
		c-0.28-2.03-1.89-2.3-3.46-2.38c-1.43-0.07-2.46,0.63-2.27,2.24C281.5,423.49,283.24,423.5,284.63,423.78z"/>
	<path class="st2" d="M371.46,382.51c0.51-3.22-1.94-4.66-3.97-6.56c2.27-5.02,6.05-8.61,9.64-12.38c2.01,1.32,0.64,2.58,0.07,3.67
		c-1.45,2.74-3.03,5.41-4.62,8.08c-1.08,1.82-1.13,3.62,0.32,5.14c1.51,1.58,3.1,0.6,4.63-0.27c2.7-1.53,5.39-3.1,8.2-4.42
		c1.44-0.68,3.02-1.61,5.79-0.36C384.91,379.15,379.57,383.83,371.46,382.51z"/>
	<path class="st1" d="M298.78,322.87c0.14-3.34,1.79-5.51,5.3-5.75c3.58-0.24,5.75,2,5.92,5.19c0.17,3.19-2,5.87-5.3,5.88
		C301.76,328.21,298.96,326.74,298.78,322.87z"/>
	<path class="st2" d="M364.98,386.52c4.38-2.79,10.23-2.09,14.53,1.52C375.33,391.17,368.81,390.6,364.98,386.52z"/>
	<path class="st2" d="M274.29,213.36c-0.26-4.56-0.52-8.33-0.66-12.1c-0.03-0.81,0.64-1.42,1.46-1.61c0.98-0.22,1.77,0.11,2.41,0.97
		C279.47,203.28,278.13,210.3,274.29,213.36z"/>
	<path class="st1" d="M309.41,331.81c-0.01,3.18-2.11,3.9-4.4,4.45c-5.13,1.22-9.93,1.03-13.02-4.01c-1.54-2.51-2.47-5.33,0.17-8.15
		C293.54,334.59,299.02,337.06,309.41,331.81z"/>
	<path class="st2" d="M281.32,199.67c2.41-1.08,3.12,0.07,3.61,1.75c1.26,4.38-0.19,10.01-3.67,12.7
		C281.01,209.03,282.9,204.3,281.32,199.67z"/>
	<path class="st3" d="M313.9,414.83c1.24,1.21,1.43,2.39,1.72,3.83c-2.82,0.57-5.6,1.13-9.57,1.93
		C309.01,418.07,310.9,415.94,313.9,414.83z"/>
	<path class="st2" d="M377.16,392.46c-5.09,3.83-8.79,3.37-11.69-0.93C369.16,392.09,372.61,392.9,377.16,392.46z"/>
	<path class="st2" d="M267.72,211.8c0-3.86,0-7.1,0-10.76C271.37,205.21,271.4,208.28,267.72,211.8z"/>
	<path class="st2" d="M289.35,211.42c-0.49-3.68-0.03-7.31-0.06-10.96C291.52,204.06,291.18,207.75,289.35,211.42z"/>
	<path class="st2" d="M328.64,319.99c-0.28,0.24-0.55,0.46-0.82,0.69c-0.15-0.22-0.35-0.43-0.42-0.67c-0.17-0.59,0.3-0.71,0.69-0.71
		C328.25,319.31,328.4,319.68,328.64,319.99z"/>
	<path class="st3" d="M297.9,429.2c0.2-0.07,0.4-0.13,0.6-0.2c-0.04,0.05-0.08,0.13-0.12,0.13c-0.13,0-0.26-0.04-0.4-0.05
		C297.96,429.1,297.9,429.2,297.9,429.2z"/>
	<path class="st1" d="M228.62,554.58c0,5.31,0,10.11,0,15.66c-5.38,0-10.62-0.11-15.84,0.07c-1.59,0.05-4.41-1.22-4.49,1.67
		c-0.09,3.32,2.96,1.88,4.68,2.03c5.08,0.44,10.18,0.63,15.54,0.93c0,5.46,0,10.52,0,16.08c-6.68,0-13.15,0-20.36,0
		c0,5.56-0.2,10.64,0.07,15.7c0.2,3.73-0.75,5.47-4.85,5.12c-4.03-0.34-8.11-0.2-12.16-0.04c-2.74,0.11-3.87-0.71-3.88-3.67
		c-0.11-17-0.38-33.99-0.62-50.99c-0.03-1.98-0.08-3.75,2.78-3.73C202.38,553.48,215.29,553.33,228.62,554.58z"/>
	<path class="st1" d="M251.44,546.67c-12.01,0-23.34,0-34.68,0c-1.96,0-2.75-0.97-2.75-2.9c0.03-16.5,0.02-32.99,0.02-49.87
		c8.67,0,17.31-0.01,25.95,0.02c1.08,0,2.17,0.18,3.23,0.4c2.63,0.52,6.73-1.48,7.64,1.35c1.17,3.66,0.45,7.99,0.23,12.01
		c-0.08,1.47-1.67,1.54-2.99,1.53c-3.89-0.03-7.79-0.05-11.68,0.03c-1.39,0.03-3.29-0.64-3.69,2.39c4.63,1.42,9.74,0.07,14.61,2.07
		c0.7,4.42,0.21,9.02,0.28,13.69c-5.03,1.48-10.34-0.49-14.81,2.11c3.79,2.13,7.67,1.41,11.44,1.6c7.19,0.36,7.2,0.27,7.2,7.37
		C251.44,540.95,251.44,543.43,251.44,546.67z"/>
	<path class="st1" d="M289,525.01c3.46,4.45,7.02,8.14,10.77,11.64c2.26,2.1,1.01,3.33-0.88,4.76c-8.71,6.6-21.5,6.78-30.57,0.33
		c-16.13-11.48-15.72-34.04,0.84-44.92c8.53-5.61,22.34-4.63,30.09,2.04c1.94,1.67,2.32,3.13,0.32,4.99
		c-1.93,1.8-3.76,3.71-5.61,5.6c-2.55,2.6-4.56,5.47-9.28,3.01c-2.77-1.44-6.16,0.55-7.88,3.49c-2.03,3.47-1.57,7.11,1.14,9.94
		c2.45,2.56,5.74,1.58,8.74,0.79C287.35,526.48,287.91,525.81,289,525.01z"/>
	<path class="st3" d="M254.57,527.74c-4.11,0.93-3.23-1.61-3.18-3.12c0.13-4.15-0.55-8.48,0.4-12.49c0.76,0.12,1.51,0.24,2.27,0.36
		C253.67,517.51,252.83,522.54,254.57,527.74z"/>
	<path class="st1" d="M393.97,567.16c3.6-2.95,4.77-6.99,6.83-10.37c1.47-2.41,2.97-3.59,5.9-3.41c6.68,0.42,13.41-0.29,20.51,1.17
		c0.27,5.04,0.74,10.11,0.79,15.19c0.12,12.33-0.06,24.66,0.13,36.98c0.06,3.8-1.02,5.41-5.02,5.1c-4.03-0.31-8.12-0.23-12.16-0.03
		c-3.08,0.15-4.16-1.05-4.1-4.07c0.13-7.17,0.04-14.34,0.04-22.97c-4.43,6-8.11,10.97-12.15,16.44c-4.12-5.24-7.8-9.9-12.24-15.54
		c0,9.3,0,17.32,0,25.72c-7.15,0-13.9,0-20.72,0c-1.17-2.6-0.57-5.29-0.6-7.89c-0.15-15.29-0.12-30.59-0.34-45.88
		c-0.05-3.24,0.88-4.41,4.23-4.24c5.76,0.28,11.55,0.26,17.32,0.11c2.83-0.08,4.43,0.65,5.63,3.49
		C389.49,560.45,391.83,563.6,393.97,567.16z"/>
	<path class="st1" d="M324.25,598.55c0,3.27-0.08,6.54,0.03,9.8c0.08,2.27-0.54,3.5-3.11,3.43c-4.83-0.12-9.66-0.11-14.49,0
		c-2.49,0.06-3.2-1.09-3.22-3.39c-0.17-17.12-0.39-34.25-0.66-51.37c-0.04-2.55,0.84-3.62,3.5-3.62c11.37-0.01,22.73,0.07,34.06,1
		c5.45,0.45,8.6,4.08,10.75,8.59c4.43,9.28,2.22,22.4-5.06,29.76c-1.9,1.92-0.93,3.3-0.11,4.94c2.21,4.4,4.45,8.79,7.1,14.01
		c-7.05,0-13.21,0.05-19.36-0.03c-1.92-0.03-2.3-1.89-3.03-3.2c-1.91-3.4-3.77-6.84-5.64-10.26
		C324.74,598.32,324.49,598.44,324.25,598.55z M324.73,578.56c2.74,0.15,5.45,0.95,6.84-1.94c0.73-1.52,0.99-3.56-0.24-4.9
		c-2.04-2.25-4.7-1.58-7.21-1.11C323.38,573.43,323.86,575.82,324.73,578.56z"/>
	<path class="st3" d="M327.64,611.33c-0.08-0.1-0.24-0.22-0.23-0.32c0.01-0.11,0.18-0.21,0.28-0.31c0.09,0.11,0.25,0.23,0.24,0.34
		C327.92,611.14,327.74,611.23,327.64,611.33z"/>
	<path class="st1" d="M103.55,493.7c5.34,0,10.31-0.08,15.27,0.04c2.2,0.05,3.57,1.16,4.28,3.52c1.76,5.9,3.86,11.71,6.2,18.68
		c2.67-6.04,2.82-11.49,4.37-16.54c0.6-1.97-0.03-5.13,2.48-5.61c3.78-0.72,7.81-0.77,11.49,0.81c1.32,0.57,1.28,2.35,1.63,3.71
		c1.48,5.66,3.04,11.3,4.85,17.96c2.22-6.96,4.3-12.76,5.89-18.69c0.91-3.41,2.65-4.35,5.99-4.13c4.46,0.3,8.95,0.07,13.83,0.07
		c-0.53,5.95-2.82,10.56-4.25,15.36c-3.29,11.01-7.08,21.88-10.42,32.88c-1.1,3.63-2.64,5.6-6.8,5.1c-3.69-0.45-7.84,0.7-11.07-0.61
		c-3.08-1.25-2.87-6.25-5.51-8.71c-0.43,0.2-0.8,0.24-0.94,0.45c-1.83,2.66-1.48,7.57-4.41,8.29c-4.71,1.15-9.89,0.43-14.88,0.43
		c-1.27,0-1.8-0.91-2.18-2.06c-5.33-16.22-10.7-32.42-16.02-48.64C103.17,495.45,103.44,494.77,103.55,493.7z"/>
	<path class="st1" d="M205.9,546.44c-5.9,0-11.74,0-17.96,0c0-17.61,0-34.97,0-52.51c0.65-0.15,1.23-0.36,1.82-0.39
		c16.6-0.93,16.6-0.92,16.66,15.42c0.04,10.76,0.06,21.51,0.07,32.27C206.5,542.9,206.75,544.63,205.9,546.44z"/>
	<path class="st1" d="M76.87,553.74c6.65-0.92,12.83,0.09,19.03,0.28c2.29,0.07,2.52,1.93,3.04,3.55
		c2.17,6.65,4.35,13.29,6.95,21.23c1.17-4.85,2.09-8.57,2.95-12.31c0.21-0.9,0.17-1.86,0.4-2.76c2.82-11.26,2.81-11.16,14.42-9.91
		c2.35,0.25,3.27,1.28,3.76,3.27c1.69,6.86,3.4,13.71,5.39,21.72c2.43-7.65,4.75-14.22,6.56-20.93c1.02-3.78,2.95-4.89,6.66-4.55
		c4.02,0.37,8.1,0.2,12.16,0.22c2.6,0.01,3.82,0.82,2.79,3.7c-5.29,14.73-9.12,29.96-15.26,44.39c-0.06,0.14-0.18,0.28-0.18,0.43
		c-0.01,3.18-0.23,6.94-2.6,8.67c-2.69,1.97-6.68,0.26-10.03,0.77c-6.29,0.96-10.44-1.05-11.95-7.58c-0.21-0.9-0.56-2.16-1.79-2.49
		c-1.04,0.14-1.01,1.1-1.42,1.69c-1.8,2.61-1.29,7.4-4.94,7.95c-5.33,0.8-10.87,0.37-16.32,0.19c-1.94-0.06-1.9-2.3-2.36-3.65
		c-3.93-11.56-7.73-23.15-11.57-34.74C80.49,566.63,78.21,560.43,76.87,553.74z"/>
	<path class="st1" d="M464.8,553.54c14.34-0.29,27.86,0,41.84,0.96c0.42,5.11,0.36,10.15-0.01,15.73c-5.81,0-11.38-0.02-16.95,0.02
		c-1.48,0.01-3.42-0.41-3.32,2.07c0.09,2.18,1.89,1.64,3.18,1.73c13.37,0.93,13.37,0.92,12.96,14.32c-0.02,0.62-0.15,1.23-0.29,2.33
		c-3.88,0.85-7.92,0.14-11.89,0.42c-1.53,0.11-3.87-0.82-3.98,1.89c-0.13,3.15,2.5,2.15,4.11,2.18c5.28,0.12,10.56,0.05,15.99,0.05
		c0.94,5.09,0.43,9.58,0.46,14.04c0.02,2.1-1.47,2.46-3.2,2.46c-11.7-0.01-23.41-0.02-35.11,0.01c-1.8,0-2.99-0.41-3.09-2.52
		C464.63,590.86,464.99,572.49,464.8,553.54z"/>
	<path class="st1" d="M328.9,509.27c-6.43,0-11.56,0-17.21,0c-0.39-4.63-0.82-9.06-1.1-13.51c-0.11-1.86,1.25-2.29,2.83-2.26
		c12.76,0.2,25.55-0.5,38.48,1.19c0.98,7.73,1.53,15.06-5.17,20.99c-3.81,3.37-6.29,8.08-10.35,11.33c-1.08,0.86-1.92,2-1.95,3.71
		c5.84,0.39,11.55,0.78,17.6,1.18c0,4.77,0,9.38,0,14.14c-0.55,0.77-1.53,0.66-2.45,0.67c-11.24,0.01-22.47-0.05-33.71,0.04
		c-3.24,0.02-4.46-0.96-4.72-4.53c-0.55-7.6,1.21-13.91,6.74-19.42C321.7,518.99,324.74,514.44,328.9,509.27z"/>
	<path class="st3" d="M355.33,510.4c0.46,0.08,0.92,0.16,1.38,0.24c0,5.73,0,11.47,0,17.2c-0.51,0.14-1.02,0.28-1.53,0.42
		c-4.47,0-8.94,0-14.45,0C346.03,521.79,350.68,516.09,355.33,510.4z"/>
	<path class="st1" d="M360.19,493.52c5.56,0.14,10.67-0.23,15.79,0.66c2.2,0.38,3.17,1.3,3.81,3.36c1.74,5.6,3.72,11.13,6.3,16.59
		c0-6.68,0-13.37,0-20.33c6.25,0,12.11,0,18.37,0c0,17.51,0,34.88,0,52.93c-5.35,0-10.76,0.02-16.16-0.01
		c-2.23-0.01-2.61-1.78-3.15-3.45c-1.86-5.7-3.8-11.37-6.6-16.91c0,6.6,0,13.19,0,20.07c-6.31,0-12.14,0-18.35,0
		C360.19,528.85,360.19,511.47,360.19,493.52z"/>
	<path class="st1" d="M439.02,493.6c12.39-0.29,24.47,0,36.77,1.11c0.58,4.82,0.65,9.4-0.01,14.21c-6.15,0.84-12.37-0.34-18.25,1.73
		c4.69,2.35,9.82,0.95,14.64,3.08c0.52,4.42,0.39,9.01,0.06,13.73c-4.89,1.51-10.14-0.72-14.7,2.07c3.99,2.24,8.42,1.82,12.48,1.83
		c5.23,0.01,6.98,1.66,6.29,6.71c-0.35,2.59-0.06,5.27-0.06,8.65c-5.12,0-9.89,0.01-14.66,0c-6.24-0.01-12.48,0.01-18.72-0.08
		c-2.25-0.03-4.25-0.26-4.24-3.54c0.06-15.91-0.07-31.83-0.12-47.74C438.5,494.93,438.75,494.5,439.02,493.6z"/>
	<path class="st1" d="M265.82,611.76c-15.77-0.01-29.08-13.17-29.32-29.01c-0.24-15.59,13.45-29.29,29.21-29.23
		c15.66,0.06,29.11,13.62,29.08,29.31C294.76,599.37,282.35,611.76,265.82,611.76z M273.84,582.46c0.16-4.48-2.72-7.65-7.25-7.95
		c-4.8-0.32-8.64,3.25-8.75,8.12c-0.13,5.67,2.06,8.1,7.48,8.33C270.89,591.2,273.63,588.47,273.84,582.46z"/>
	<path class="st1" d="M436.12,553.44c7.13,0.13,13.82-0.36,20.77,1.19c0,18.79,0,37.57,0,56.75c-6.84,0-13.58,0-20.77,0
		C436.12,592.21,436.12,573.12,436.12,553.44z"/>
	<path class="st1" d="M412.59,546.36c0-17.29,0-34.38,0-51.64c5.92-1.32,11.84-1.74,18.15,0.04c0,17.05,0,34.13,0,51.6
		C424.96,546.36,419.11,546.36,412.59,546.36z"/>
	<path class="st0" d="M264.4,376.75c-3.94-0.35-4.1-2.51-4.74-4.11c-2.57-6.45-3.36-13.21-2.9-20.09c0.17-2.64-0.49-4.76-2.15-6.82
		c-3.01-3.71-4.13-8.13-4.6-12.86c4.26,0.13,2.78,8.13,9.29,5.27C260.09,351.07,260.26,363.89,264.4,376.75z"/>
	<path class="st0" d="M305.16,394.46c-6.15-0.53-11.69-1.01-17.87-1.54c1.89-4.29,5.41-4.22,8.24-4.02
		C299.07,389.14,303.28,389.16,305.16,394.46z"/>
	<path class="st0" d="M257.8,284.48c-3.1,1.02-3.03,4.07-5.82,6.27c1.19-5.74-4.03-11.08,2.7-16.25
		C253.83,278.72,254.76,281.56,257.8,284.48z"/>
	<path class="st0" d="M300.11,416.35c2.53-0.66,0.83-3,2.24-3.92c1.53,1.6,2.36,3.4,0.73,5.33c-1,1.19-2.36,2.01-4.1,1.1
		c-2.31-1.21-2.21-3.33-1.69-5.27c0.49-1.82,0.56-3.93,2.13-5.64C301.25,410.83,298.4,413.65,300.11,416.35z"/>
	<path class="st0" d="M301.01,366.64c0.08,4.84,0.57,9.74-3.01,14.08c0.61-4.72,1.22-9.45,1.84-14.17
		C300.23,366.58,300.62,366.61,301.01,366.64z"/>
	<path class="st0" d="M270.61,371.14c3.32,1.39,4.54,3.15,2.71,6.9C270.66,375.97,269.51,374.18,270.61,371.14z"/>
	<path class="st0" d="M315.21,388.46c0.78-2.67,2.69-3.06,4.63-3.63C319.9,388.83,319.7,388.98,315.21,388.46z"/>
	<path class="st0" d="M350.85,396.97c-0.16-2.53-1.37-4.12-0.39-6C353.7,392.68,353.83,393.44,350.85,396.97z"/>
	<path class="st0" d="M70.37,223.54c3.73,3.54,4.71,8.25,6.88,12.46c-0.53,0.22-1.06,0.45-1.59,0.67
		C73.9,232.3,72.13,227.92,70.37,223.54z"/>
	<path class="st0" d="M106.43,237.39c-2.49-3.63-3.97-7.68-4.12-12.3c1.71,3.9,3.42,7.79,5.13,11.69
		C107.1,236.98,106.77,237.18,106.43,237.39z"/>
	<path class="st0" d="M123.01,204.08c2.45,3.4,3.89,7.22,4.72,11.3C124.23,212.42,123.52,208.29,123.01,204.08z"/>
	<path class="st0" d="M69.07,218.46c1.16,0.77,1.84,1.65,1.1,3.28C68.57,220.99,68.62,219.84,69.07,218.46z"/>
	<path class="st0" d="M107.31,239c1.44,0.84,1.73,1.86,1.5,3.29C107.31,241.64,106.81,240.76,107.31,239z"/>
	<path class="st0" d="M79.93,246.29c0.59,0.24,1.5,0.1,1.41,1.15c-0.01,0.11-0.19,0.29-0.29,0.29c-1.07,0.03-0.81-0.92-1.07-1.49
		L79.93,246.29z"/>
	<path class="st0" d="M79.97,246.24c-0.63-0.17-1.37-0.23-1.35-1.2c1.25-0.25,1.09,0.67,1.31,1.25
		C79.93,246.29,79.97,246.24,79.97,246.24z"/>
	<path class="st0" d="M307.84,293.24c-4.66-0.73-8.53-1.55-12.88-1.45c3.65-2.23,2.83-5.83,3.6-8.86c0.54-2.12,1.3-4.16,2.87-5.76
		c0.97-0.99,2.06-2.12,3.6-1.29c1.33,0.72,1.02,2.36,1.5,3.44C308.5,283.73,305.13,288.34,307.84,293.24z"/>
	<path class="st0" d="M338.36,291.18c-1.52,5.27-1.87,10.86-4.67,16.02c-2.98-1.47-5.16-4.79-9.09-5.51
		c5.43-2.89,5.74-11.04,12.95-11.38l-0.1-0.09c-0.23,0.9,0.22,1.13,1.01,1.02L338.36,291.18z"/>
	<path class="st0" d="M350.72,324.24c-2.62-0.64-4.61,1.8-7.26,0.57c1.1-3.84,4.07-4.51,7.16-4.78c3.16-0.27,6.25-0.1,7.91,4
		c-4.09,0.34-5.21,7.19-10.71,4.33C347.73,326.09,350.66,326.34,350.72,324.24z"/>
	<path class="st0" d="M301,263.36c6.12-1.03,11.01,2.17,16.56,3.94C312.83,271.93,304.1,269.68,301,263.36z"/>
	<path class="st0" d="M310.54,299.2c-0.76,2.42-3.58,3.65-1.47,5.87c1.63,1.72,3.66,2.11,5.93,2.01c2.95-0.12,2.25-2.8,3.21-4.66
		c2.45,1.39,2.26,3.64,1.19,5.06c-2.28,2.99-5.64,2.76-8.93,1.76c-3.04-0.92-4.81-3.09-4.68-6.15
		C305.86,300.98,307.04,299.05,310.54,299.2z"/>
	<path class="st0" d="M337.54,290.31c-1.34-2.52-5.24-3.91-3.17-8.6c3.45,3.67,8.79,4.2,12.09,8.42c-2.97,2.18-5.65,0.41-8.09,1.05
		c0,0,0.09,0.06,0.09,0.06c0.34-1.01-0.39-0.96-1.01-1.02L337.54,290.31z"/>
	<path class="st0" d="M474.13,227.09c-0.04,3.38-1.64,5.24-2.41,8.29C470.73,231.71,471.15,230.36,474.13,227.09z"/>
	<path class="st0" d="M478.69,216.05c0.14,2.81-0.71,4.3-2.28,5.68C475.91,219.49,477.03,218.07,478.69,216.05z"/>
	<path class="st0" d="M475.76,222.97c0.47,1.75,0.04,2.67-1.22,3.29C473.81,224.85,474.55,223.99,475.76,222.97z"/>
	<path class="st0" d="M479.72,214.53c-0.19,0.12-0.36,0.22-0.53,0.33c-0.04-0.25-0.11-0.5-0.1-0.75c0-0.1,0.2-0.19,0.3-0.28
		C479.5,214.06,479.61,214.3,479.72,214.53z"/>
	<path class="st0" d="M352.87,426.1c4.06,0.23,7.31,0.72,10.64-0.06c0.44,3.08-1.36,3.81-3.45,4.06
		C357.14,430.45,354.82,429.51,352.87,426.1z"/>
	<path class="st0" d="M205.62,426c3.3,0.14,6.54,0.58,10.09-0.47c-0.7,4.17-3.44,4.4-6.18,4.47
		C207.07,430.06,205.42,429.14,205.62,426z"/>
	<path class="st0" d="M138.97,235.94c-0.11-0.07-0.22-0.14-0.33-0.21c0.1,0.08,0.19,0.17,0.29,0.25
		C138.92,235.99,138.97,235.94,138.97,235.94z"/>
	<path class="st0" d="M284.63,423.78c-1.39-0.28-3.14-0.29-3.37-2.36c-0.18-1.61,0.84-2.31,2.27-2.24c1.57,0.08,3.17,0.34,3.46,2.38
		C287.23,423.27,286.12,423.67,284.63,423.78z"/>
	<path class="st0" d="M324.73,578.56c-0.87-2.74-1.35-5.13-0.6-7.95c2.51-0.47,5.16-1.13,7.21,1.11c1.22,1.34,0.97,3.38,0.24,4.9
		C330.18,579.51,327.46,578.71,324.73,578.56z"/>
	<path class="st0" d="M273.84,582.46c-0.22,6-2.96,8.73-8.52,8.5c-5.43-0.23-7.61-2.66-7.48-8.33c0.11-4.86,3.96-8.43,8.75-8.12
		C271.12,574.82,274,577.98,273.84,582.46z M270.98,583.25c-0.16-3.26-2.02-5.11-4.9-5.23c-3.03-0.13-4.92,1.97-4.97,4.94
		c-0.05,2.8,1.8,4.77,4.57,4.86C268.58,587.92,270.51,586.18,270.98,583.25z"/>
	<path class="st2" d="M337.44,290.22c0.62,0.07,1.35,0.02,1.01,1.02C337.66,291.35,337.21,291.12,337.44,290.22z"/>
	<path class="st3" d="M270.98,583.25c-0.47,2.93-2.4,4.67-5.3,4.57c-2.77-0.09-4.62-2.06-4.57-4.86c0.05-2.97,1.94-5.07,4.97-4.94
		C268.96,578.14,270.82,579.99,270.98,583.25z"/>
</g>
</svg>
