<?xml version="1.0" encoding="utf-8"?>
<!-- Generator: Adobe Illustrator 23.0.1, SVG Export Plug-In . SVG Version: 6.00 Build 0)  -->
<svg version="1.1" id="Layer_1" xmlns="http://www.w3.org/2000/svg" xmlns:xlink="http://www.w3.org/1999/xlink" x="0px" y="0px"
	 viewBox="0 0 595.3 841.9" style="enable-background:new 0 0 595.3 841.9;" xml:space="preserve">
<style type="text/css">
	.st0{fill:#2B282A;}
	.st1{fill:#807F8C;}
	.st2{fill:#ECBD9C;}
	.st3{fill:#FEFEFE;}
</style>
<g>
	<path class="st0" d="M476.4,331.9c-6.3,1.6-22.9-5.3-25.6-10.4c-6.2,1.3-22.6-5.4-25.8-10.7c-2.6,1.3-5.2,0.9-7.9-0.4
		c-3.4-1.6-6.9-2.9-10.4-4.3c-7.8-3.2-10-8.3-6.8-16c5.3-12.8,10.5-25.6,15.9-38.7c-13.1-5.9-26.4-10.1-39.9-13.6
		c-17.7-4.6-35.6-7.6-53.9-8.8c-2.3-0.2-4.3-0.6-5.3,2.3c-0.5,1.4-2,2.2-3.3,2.4c-8.4,1.6-13.1,9.5-20.9,12c-0.8,0.3-1,1.1-1,1.9
		c-0.2,8.8-0.3,17.6-1,27c7.8-18.9,21.8-26,41.6-23.4c1.9-4.2,3.7-8.8,8.3-11.1c1.4-0.7,2.7-2.2,4.7-0.9c1.7,1.1,1.3,2.7,1.1,4.2
		c-0.4,5.4,2.1,9.4,6.2,12.4c4.4,3.3,8.2,7.2,12.2,10.9c11.6,10.7,12.2,24.1,9.1,38.4c-1.7,8-5.6,15.1-10.1,22.5
		c4.7,2.2,8.6,5.1,9.6,10.5c0.6,3.1,0.2,6.2-1.4,9c-3.8,6.7-10.5,8-21.4,3.8c-2.7,4.3-6.3,7.9-11,10.7c6.4,4.7,9.3,11.4,11,18.5
		c0.9,4,4.2,6.5,5.5,10.2c0.5,1.5,2.8,1.3,3.8,0.7c4.4-2.7,9.2-4.2,14-6c2.9-1.1,4.7-5.2,7-8c1.1-1.4,2.1-2.6,4-2.9
		c4.5-0.6,8.2,3.6,6.8,8.1c-0.5,1.8-1.5,3.4-2.6,5.8c2.6-0.9,4.6-1.9,6.7-2.3c3.3-0.7,6.7-1.1,8.4,2.8c1.6,3.7-0.2,6.4-3.3,8.3
		c-2.9,1.8-6,3.3-9,4.9c0.3,7.3-2,11.1-8.5,14.2c-2.5,1.2-4.3,3.6-7,4.6c-2.4,1-5.3,0-7.8,2.2c10.6,6.2,14.3,15.5,12.4,27.3
		c-1,6.3-3.5,12-6.9,17.2c-3.9,6-8.2,11.7-12.3,17.6c-1.2,1.8-2.8,3.3-3.1,5.9c4.9,1.6,9.8,3.1,12.9,7.5c1.2,1.7,3,3.5,1.8,5.9
		c-1.1,2.1-3.3,1.2-5.1,1.2c-13.3,0.1-26.5,0.1-39.8,0c-5.7,0-6-0.3-5.4-5.8c0.2-2.5,0.7-4.9,1.1-8c-20.5,6.8-40.8,6.3-61.6,0.6
		c0.4,2.9,0.7,5.7,1,8.4c0.4,3.1-0.7,4.7-4.1,4.7c-14.2-0.1-28.4,0-42.6,0c-4.5,0-5.3-1.7-3.2-5.5c2.1-3.7,5.3-6,9.2-7.5
		c1.6-0.6,3.1-1.2,5.4-2.1c-4.6-6.6-9.1-12.8-13.5-19.2c-4.5-6.4-8.3-13.2-9.6-21.1c-1.1-6.4-0.1-12.5,2.9-18.1
		c4.8-9,14.5-12.1,26-8.6c1.4,0.4,2.9,1,4.7,1.7c1.1-9.8,3.9-18.8,7-27.7c1.3-3.8-0.4-7.7-0.9-11.6c-2.6-21.1-0.9-42,2.1-62.9
		c3.3-23.2,8.5-45.9,16.7-67.9c0.5-1.5,1-3,1.7-4.3c3.6-6.5,5.4-13.3,3.2-21.2c-30.9,2.5-61.2,9.5-90.5,21.7
		c5.4,13.1,10.7,25.9,16,38.7c1.9,4.7-0.8,11.2-5.6,13.2c-4.3,1.8-8.7,3.5-12.9,5.4c-2.4,1.1-4.6,1.7-6.9,0
		c-3.9,5.6-20.1,12.4-25.7,10.9c-4,5.5-20.3,12.1-26,10.3c-0.7,3.3-3.2,4.5-6,5.6c-3.5,1.3-6.9,2.8-10.4,4.2
		c-7.6,3.1-12.7,1-15.8-6.5c-11.8-28.6-23.7-57.2-35.6-85.9c-2.3-5.6,0.1-11.7,5.7-14c4.2-1.8,8.4-3.4,12.5-5.2
		c2.4-1.1,4.7-1.7,6.9,0c4.5-5.8,20.5-12.4,25.8-10.7c3.9-5.5,19.9-12.2,26.1-10.7c0.8-3,3.1-4.3,5.8-5.3c3.2-1.1,6.4-2.6,9.5-3.9
		c8.7-3.7,13.6-1.6,17.3,7.3c4.9,11.8,9.7,23.5,14.7,35.6c15.1-6.1,30.1-11.1,45.6-14.8c14.9-3.5,29.9-6.1,45.2-7.4
		c3-0.3,5.8-0.6,8.3-3.2c2.9-3,7.6-1.8,11.4-2.7c3.8-0.9,8.3-2.1,12.6-0.1c2.1,0.9,4.5,0.9,5.6,3.4c0.6,1.3,1.7,1.1,2.8,1.1
		c39.3,1,77.4,8.3,113.8,23.3c0.4,0.2,0.9,0.1,1.7,0.2c4.8-11.7,9.7-23.5,14.5-35.3c2.4-5.9,8.4-8.5,14.2-6.1c4,1.6,8,3.4,12.1,4.9
		c2.6,1,4.9,2.1,5.4,5c7-1.1,23.1,5.6,25.8,10.6c6.6-1.2,22.8,5.6,25.6,11c2.8-1.7,5.5-1,8.3,0.3c3,1.4,6,2.5,9,3.8
		c9.3,3.9,11.1,8.4,7.3,17.7c-11.5,27.9-23,55.8-34.6,83.8c-2.8,6.8-8.4,9.1-15.1,6.4c-3.9-1.6-7.8-3.3-11.7-4.8
		C479.2,336.2,477.2,334.9,476.4,331.9z M306.8,444.9c0.1,0,0.3,0.1,0.4,0.1c0,0,0.1-0.1,0.1-0.1c-0.2,0.1-0.4,0.1-0.6,0.2
		c0.8-1,0-1.7-0.5-2.4c-4.3-5.7-10.1-9.6-16.6-12.8c0,4.4-2,7.9-2.6,11.9C293.8,442.1,300.3,443.1,306.8,444.9z M500.2,278.2
		c0.6-0.8,1.3-1.5,2.1-2.5c1.2,6.9,6.4,11.6,12.6,11.7c3.9,0,7.9-1.4,9.3-5.2c4.3-11.6,11.3-21.9,15.5-33.6
		c1.7-4.9,0.6-8.6-4.4-10.7c-2.3-1-4.6-1.9-6.9-2.9c-7.3-3.1-8.6-2.9-13.5,2.8c-0.1-1.8,0.5-3.4,0-5.4c-1.3-4.8-5.4-5.2-8.8-6.6
		c-4.3-1.8-8.5-4.8-13.7-2.3c-1.9,0.9-3.3-0.6-3.5-2.6c-0.3-2.3-1.7-3.1-3.5-3.8c-3-1.2-6.2-2.2-9-3.8c-4.3-2.5-8-1.5-11.8,1.6
		c-0.1-5.2-2.5-8-7.1-9.4c-2.8-0.9-5.5-2.2-8.2-3.3c-4-1.6-8.2,0.1-9.8,4.1c-4.8,11.5-9.6,23-14.3,34.5c-1.1,2.8-3,5.4-2.7,9.6
		c1.3-2.2,2.2-3.7,3.2-5.3c2.3,8.2,8.3,10.5,13.5,10.6c6.3,0.1,9.1-4.9,11.1-9.8c2.4-5.9,4.6-11.8,7.7-17.4
		c2.1-3.9,3.9-7.9,6.1-12.4c0.8,2-0.1,2.9-0.5,3.9c-8,19.6-16.3,39.2-24.1,58.9c-2.9,7.2-6.5,14.1-8.1,22c-0.7,3.6,1,7.3-1.3,10.9
		c5.4,2.2,10.6,4.5,16.3,6.8c0.9-4.2,5.8-4.4,7.2-8.7c3.4-10,7.9-19.6,11.9-29.4c2.8-6.8,1.7-8.6-5.8-9.9c-4.5-0.8-8.7-2-11.9-5.7
		c0.9-2.9,1.1-6,3.3-8.6c0.4,1,0.7,1.7,1,2.4c2.3,4.8,6.2,7.2,11.4,7.6c5,0.4,7.9-2.1,10.2-6.4c1.4-2.5,1.6-6,5.5-8.3
		c-0.6,6.2-5.2,10.6-4.9,16.3c2-0.5,1.1-2.6,2.8-2.6c0.8,6.3,4.7,10.6,10.5,11.3c6.2,0.8,10.6-1.3,12.5-7.8
		c2.2-7.5,7.8-13.1,9.9-20.5c1-3.6,2.5-7.3,5-10.4c0.3,3.6-1.8,6.5-3,9.6c-3.8,10.3-9.6,19.7-12.3,30.4c-0.4,0.6-1,1.2-1.2,1.9
		c-4.8,11.6-9.5,23.2-14.3,34.9c-1.3,3.3-2.6,6.6-3.8,9.9c-1.2,3.1,2.6,5.5,1,8.5c5.5,2.3,10.7,4.4,15.1,6.2
		c4.6-3.5,7.6-7.3,9.4-12.3c3.1-8.8,7.1-17.2,10.5-25.9c1.2-3,0.4-5.6-2.8-6.9c-1.6-0.6-3.3-1-4.9-1.4c-3.8-1-7.1-3.1-9.6-5.8
		c-2-2.1,1.1-4.8,1.1-7.4C500,279.2,500.1,278.7,500.2,278.2z M147.7,251.8c1.2,0.3,2.4,0.8,3.6,1c5.2,0.9,9.9,0,13.6-4.1
		c3.4-3.7,3.3-7.8,1.4-12.1c-1.1-2.5-2.8-5-3.1-7.6c-1.1-9.2-6.1-16.9-9.2-25.3c-1.4-3.8-5.5-5.3-9.3-3.9c-3.8,1.4-7.6,2.9-11.3,4.5
		c-4.1,1.8-5.3,5.3-3.5,9.5c0.8,2,2,3.9,1.9,6.2c-2.2-0.9-2.2-3.2-3-4.9c-2.1-4.8-5.8-6.3-10.5-4.4c-3.5,1.4-6.9,2.8-10.3,4.3
		c-4.3,1.9-5.3,4.9-3.7,9.3c0.9,2.4,2.6,4.7,2.6,8.7c-2.3-3-3.4-5.3-4-7.9c-0.8-3.8-4.8-5.7-6.9-4.7c-7,3.1-16.6,2.7-18.9,12.6
		c-3,0-4.8-3.5-8.1-1.9c-3.9,1.9-8.1,3.3-12,5.1c-3.6,1.6-5.1,6-3.5,9.7c11.7,28.2,23.5,56.3,35.2,84.5c2.2,5.4,6,7.3,11.4,5.4
		c4.1-1.5,8-3.3,12.4-5.2c-2.6-3.1,0.4-6.1-1-9.6c-4.1-10.2-9-20.1-12.6-30.6c-0.7-1.9-2.5-3.5-5.5-4.1c-4.3-0.8-6.8,1.5-9.8,3
		c-7.9,4.1-8,4.2-11.5-3.8c-0.3-0.6-1-1.3-0.4-2.1c13.2,4.7,20.3-2.1,18-18.2c2.8,2.4,3.9,5.1,5,7.7c4.1,9.8,7.7,19.8,12.3,29.3
		c4.1,8.6,6.6,18.6,16.1,23.9c4.8-2,9.6-4,15.3-6.3c-3.3-3.1,0.4-6.1-1.2-9.5c-5-11-9.5-22.3-14.2-33.4c-1.5-3.6-4.5-3.6-6.9-1.9
		c-2.5,1.8-5.3,2.5-8,3.6c-7.2,3-9.6,1.6-11-6.6c4.7,3.7,9.4,2.8,14.1,0.2c4.9-2.7,5.6-7.9,7.2-12.8c2.3,2.5,2.1,6.1,4.8,8.2
		c1-2.4-1.4-3.9-0.9-6c6.1,3.3,11.8,2.8,16.1-1.2c4.4-4.1,5.1-9.3,2.7-15.7c-1.7-4.4-4.6-8.5-4.5-13.6c3.4,5.2,5.1,11.3,7.5,17
		c7.4,17.5,14.6,35,22,52.5c1.5,3.5,5.7,5.3,9.1,3.9c4.5-1.8,8.9-3.7,13.4-5.5c-1.8-3.7,0.7-7.4-1.1-11.3
		c-4.7-9.7-8.9-19.8-12.9-29.9c-1.3-3.3-3.1-3.8-6.1-3c-5.6,1.6-10,6.5-17,5C150.4,257.7,149.1,254.7,147.7,251.8L147.7,251.8z
		 M315.9,370.2c-1.8-2.5,1.5-3.6,1.1-5.7c-4,0.2-7.6-1.5-11.6-2.7c0.9,3.6,3.4,6.2,3,11c-9.4-15.4-21.1-27.1-34.2-37.9
		c2.6-1.6,4.1,0.8,6.4,0.2c-2.1-5.8-0.7-11.5,0.5-17c-6.7-3.6-13-7.6-11.8-16.3c1.1-8,7.2-10.6,14.5-11.2
		c1.2-13.1,3.2-25.9,3.1-38.9c0-5.5-1.4-10.7,7.1-12.4c5.4-1.1,8.9-7.5,14.6-9.9c-9.4,0.4-17.7,3.9-25.8,7.9c-0.9-1.8,0.5-3,0.5-4.3
		c-2.6-3.2-5.9-1.3-9.1-1.4c0,1.3-0.1,2.2,0,3.1c0.1,0.9,0.3,1.8,0.7,2.7c0.7,1.9,0.5,3.6-0.4,5.4c-8.1,15.8-12.9,32.7-16.8,49.9
		c-6.1,27-10.6,54.2-8.6,81.9c0.9,12.9,3.3,25.6-2.9,37.9c-1.2,2.4,0.3,3.5,2.6,4.3c9,3.1,18.1,5.9,27.7,6.2c12,0.4,22,5.1,30.1,14
		c0.9,1,1.6,2.3,3.1,4.4c5.3-14.5,16.2-14.8,27.5-13.7c0.2-6.5-1.5-14.1-3.9-17.5c-0.5,0.2-1.1,0.5-1.6,0.7
		c-0.7,0.3-1.3,0.9-2.1,0.3c0.3-1.7,9.8-19.2,11.1-20.3c1.9,3.3,0.6,6.5-0.6,9.3c-2.8,6.6-0.1,12.6,2.1,18.5c1.6,4.4,6,5.6,10.9,4.5
		c2.4-0.6,4.9-0.7,7.4-1.2c3.2-0.6,5.3-2,4.1-5.7c-0.3-0.8-0.9-1.8,0.3-2.4c6,3.6,8.4,3.6,12.7-0.8c-6.4-0.3-5.5-8-11.7-9.7
		c3.5-1.8,2.2-4.9,2.9-7.6c4.4,3.4,4.4,3.4,7.3-0.3c-9-9.3-12.3,0.7-16.6,5.3c-2.1-1.4,0.5-3.2-1.1-4.6c-8.1-0.8-11.1,5.5-15.1,12.4
		c-0.3-6.9,1.8-11.3,5.9-14.8c1.3-1.1,2.8-2.2,1.3-3.7c-4.6-4.6-4.5-11-7.1-16.5c-4.3-9.2-13.2-12.2-22.1-7.3
		C319.5,367.5,317.9,368.8,315.9,370.2z M341.3,246.3c-6.8,6.2-5.9,16.6,1.4,21.4c1.3,0.9,3.7,1.4,2.3,3.7c-1.3,2.1-3.3,1.3-5,0.4
		c-4.7-2.5-7.2-6.7-7.7-11.6c-0.4-3.9-2.6-4.5-5.6-4.7c-13.6-1.1-25.2,6.4-29.8,19.2c-2.6,7.3-3.2,14.9-3.4,22.6
		c0,1.4,0,2.9-1.6,3.6c-1.6,0.6-2.6-0.5-3.5-1.6c-2.3-2.6-5.1-3.1-8.4-2.3c7.7,7.5,8.6,9.8,5.5,13.6c-1.8-1.8-1.6-4.7-3.8-6.1
		c-1.9,1.5,0.9,3.6-1.1,5.4c-5.6-3-1.3-8.9-3.8-12.9c-2.6,1.4-2.9,4-2.7,6.6c0.5,7,6.3,8.8,11.6,10.9c-5.8,13.3,1.5,33.1,13.6,37.2
		c-3.2-10.5-12.6-20.7-1-31c-0.6-2.2-3.1-0.4-3.3-2.4c3.5-2.7,5.5-2.9,9.5-0.7c-0.1,1.9-2.8,0.1-3,2.4c4.9,0,8.8,2.5,12.7,5
		c3.2,2,6.4,3.9,10.3,4c4.4,0.2,8.3,1.5,10.8,5.4c1.1-0.9,1.3-3,3.2-1.8c2.6,1.7,4.1,4,4.4,7.2c-5.2-1.3-5.3-1.2-7,3.6
		c-2.3,6.5-8.1,10.6-15,10.5c-6.1-0.1-11.8,3.9-18.1,0.9c4.1,3.6,8.6,5.7,13.7,5.9c11.2,0.3,22-1,28.9-11.5c3.4-5.2,3.1-5.2,8.6-2.4
		c3.7,1.9,7.6,2.9,11.5,0.1c2.7-2,3.8-4.8,3-7.8c-1.2-4.3-4.4-6.5-9-6.8c-3.9-0.3-3.9-2.5-2-5.1c2.8-3.9,5.4-8,7.5-12.4
		c8.8-18,8.6-38-11-51.1C347.9,259.7,341.8,255,341.3,246.3z M344.4,498c3.7-4.5,8.9-5.3,10.7-1.4c2.6,5.5,6.5,3.5,11.5,3.8
		c-8-6.2-16.7-7.5-24.8-10.1c2.5-1.2,4.8-1.4,7.1-1c2.9,0.4,4.7-0.4,6.3-3.1c3.1-5,6.7-9.8,10.2-14.5c5.5-7.5,9.8-15.5,11.2-24.9
		c1.6-11-7.3-22-17.4-19.6c-18.3,4.3-32.1,15.8-41.2,32c-4.6,8.3,3.3,20,12.7,20.9c3-9.6,3.5-19.7,3.3-30.2c2.7,1.3,1.3,3.5,3.2,4
		c2.3-1.6,2.5-5.6,6.9-6.8c-2.8,8.5-5,15.9-6.1,23.6c-1.1,7.9-2.3,15.7-8.1,22c-1.9,2-2,4.8-1.3,7.6c8,0,15.9,0,24.2,0
		C350.8,495.5,347.4,498.8,344.4,498z M256.1,480.1c12.2-3.3,17.4-15.3,10.3-25.5c-8.9-12.8-20.8-22.4-35.9-27.2
		c-11.7-3.7-23.3,7.4-20.9,19.4c1.5,7.5,4.7,14.4,9.1,20.7c3.9,5.6,8.1,11,11.7,16.7c2.2,3.6,4.3,6.1,9.1,4.7
		c1.7-0.5,3.6,0.1,6.1,1.7c-9.2,1.9-17.8,3.4-25.7,9.5c3.9,0,6.8,0,9.9,0c0.9-3,2.3-5.6,6-5.9c3-0.2,5,0.9,6.5,3.6
		c-2.8,1-6.5-2.7-8.6,2.5c8.3,0,16.3,0.4,24.2-0.4c1-4.1-0.4-7.1-2.7-9.8c-3.2-3.7-4.6-8-5.4-12.7c-1.7-9.8-3-19.7-7.3-28.9
		c-0.4-0.9-1-2,0.3-3.1c3.9,1.3,4,6,6.8,8.1c1.7-0.7,0.2-3.2,3.1-4C252.5,460,252.8,470.1,256.1,480.1z M246,420.3
		c-4.6,6.2,0,8.5,4.1,11.9c7.1,5.7,15.1,10.6,20,18.6c2.2,3.6,4.3,7.1,4.4,11.6c0.2,10.3-4.8,17.4-13.5,22.1
		c9.8,7.1,21,6.7,32.1,6.9c11.3,0.2,22.3-1,32.4-7c-6.1-3-10-7.7-12.6-13.8c-1.5,3.1-1.8,7.2-4.6,8.4c-7.4,3.1-15.1,3.2-23,0.7
		c0.9-1.4,1.7-1.3,2.4-1.1c5.7,1.7,11.4,0.5,17.1-0.1c2-0.2,3.4-1,4.2-3.1c2.1-5.6,3.4-11.4,3.2-17.4c-0.1-4.8-3.2-7.8-7.2-9.2
		c-6-2.1-12.4-3.3-18.8-3.1c-4,0.1-4.6-1.2-3.6-4.6c1.1-4.2,3.5-8.3,2-13.2C271.4,427.1,258.6,424.1,246,420.3z M162.8,309.5
		c0.4-16.5-10.4-28.8-14.3-43.5c-4.4,0.3-8.1,0.7-11.6,2.7c-4.3,2.5-8.7,5.3-13.5,0.1c0.3,1.9,0.7,3.6,1.3,5.1
		c5,11.6,9.2,23.6,14.7,35.1c2.7,5.6,6.7,7.5,12.3,5.3C155.3,312.9,158.9,311.2,162.8,309.5z M420.8,257.4c-0.1-2.2,2.2-4.1,1-6.4
		c-0.5,0.1-0.8,0.1-0.8,0.1c-7,13.9-11.6,28.7-17.8,42.9c-1.3,3,1.5,7,2.8,7.8c4.4,2.7,9.7,3.9,14.6,5.7c1.8-3.5,5.8-4.5,7.2-8.5
		c3.3-9.3,7.4-18.3,11.2-27.4c1.4-3.4,0-6.4-2.6-7.4C431.2,262.1,426,260.1,420.8,257.4z M472.9,268.8c-6,15.7-13.6,29.8-18,45.1
		c-0.9,3.1-1.1,7.4,2.9,9.3c4.3,2.1,8.8,3.7,13.7,5.7c0.3-4,4.7-3.3,5.9-6.3c4.2-10.5,8.6-21,13-31.4c0.7-1.6,0.4-2.9-1.1-3.5
		c-4.1-1.7-8-4.2-12.1-5.9c-5.6-2.3-6-2.1-4.5-8.1C473.2,272.6,474.2,271.5,472.9,268.8z M303.7,224.4c1.2,0.1,2.1,0.1,3,0.1
		c22,0.5,43.7,3.4,65.1,8.4c14.4,3.4,28.5,7.9,42.2,13.4c1.5,0.6,3.3,2,4.2-0.6c0.8-2.2-1.1-2.6-2.4-3.3c-0.3-0.1-0.6-0.2-0.9-0.4
		c-15.4-6.3-31.3-11.2-47.6-14.7c-9.1-1.9-18.4-2.7-27.6-4.3c-10.9-1.9-21.9-2.3-32.8-3.2C304,219.6,302.6,220.8,303.7,224.4z
		 M321.1,350.8c4.8,0.5,8.5-1.5,11.2-5.2c4.1-5.5,1.9-10.5-4.6-12.6c-5.9-1.9-12.1-3.4-17.1-7.7c-4.4-3.8-9.1-3.7-12.3-0.8
		c-3.4,3.2-3.8,10.6-0.6,15.1c2.8-5.4,8.6-6.2,13.3-8.7c3-1.6,6.3-0.3,8.1,2.7C322.3,338.8,322.7,344.5,321.1,350.8z M272.3,221.5
		c-7.1-1.7-46.8,4.6-52.6,8.4c1.4,3.5,4.4,2.4,6.8,1.9c14.1-2.8,28.4-5.1,42.8-6.1C272.3,225.4,273,224.1,272.3,221.5z M314.9,453.1
		c4.5-6.5,10-11.7,16.1-16.2c1.9-1.4,1-2.8,1-3.9c1.5-1.1,3.3,1.6,4.4-1.3c-3.1,0-6.1,0-9,0c3.1,2.2-1,3.8,0,5.7
		C314.4,437.5,311.9,440.7,314.9,453.1z M380.2,398.3c8.1,1.3,13.4-3.4,20-7.1c-2.8-1.3-4.4-0.3-5.8,0.4c-2.8,1.3-5.5,2.9-8.2,4.4
		c-1.5,0.9-3.1,1.9-4.6,0.3c-1.5-1.5-1.4-3.3-0.3-5.1c1.6-2.7,3.2-5.3,4.6-8.1c0.6-1.1,1.9-2.4-0.1-3.7c-3.6,3.8-7.4,7.4-9.6,12.4
		C378.3,393.6,380.8,395.1,380.2,398.3z M307.6,338.7c0.2,3.9,3,5.3,5.9,5.3c3.3,0,5.5-2.7,5.3-5.9c-0.2-3.2-2.3-5.4-5.9-5.2
		C309.4,333.1,307.7,335.3,307.6,338.7z M373.8,402.3c3.8,4.1,10.4,4.6,14.5,1.5C384,400.2,378.1,399.5,373.8,402.3z M283.1,229.1
		c3.8-3.1,5.2-10.1,3.2-12.7c-0.6-0.9-1.4-1.2-2.4-1c-0.8,0.2-1.5,0.8-1.5,1.6C282.6,220.8,282.8,224.6,283.1,229.1z M318.2,347.6
		c-10.4,5.3-15.9,2.8-17.3-7.7c-2.6,2.8-1.7,5.6-0.2,8.1c3.1,5,7.9,5.2,13,4C316.1,351.5,318.2,350.8,318.2,347.6z M290.1,215.5
		c1.6,4.6-0.3,9.4-0.1,14.4c3.5-2.7,4.9-8.3,3.7-12.7C293.2,215.5,292.5,214.4,290.1,215.5z M322.7,430.6c-3,1.1-4.9,3.2-7.9,5.8
		c4-0.8,6.8-1.4,9.6-1.9C324.1,433,323.9,431.8,322.7,430.6z M385.9,408.2c-4.5,0.4-8-0.4-11.7-0.9
		C377.2,411.6,380.9,412.1,385.9,408.2z M276.5,227.6c3.7-3.5,3.7-6.6,0-10.8C276.5,220.5,276.5,223.7,276.5,227.6z M298.1,227.2
		c1.8-3.7,2.2-7.4-0.1-11C298.1,219.9,297.6,223.5,298.1,227.2z M337.4,335.8c-0.2-0.3-0.4-0.7-0.5-0.7c-0.4,0-0.9,0.1-0.7,0.7
		c0.1,0.2,0.3,0.5,0.4,0.7C336.9,336.2,337.1,336,337.4,335.8z"/>
	<path class="st0" d="M220,506.5c14.7,0,29,0,43.8,0c0,5.7,0,11.4,0,17.7c14.9-21.7,36.9-24.6,51.4-7.4
		c-5.9,5.9-11.8,11.8-17.8,17.9c-2.4-1.7-4.8-5.4-8.4-1.7c-1.5,1.6-1.5,3.9,0.2,5.5c3.3,3.2,5.6,0.5,7.9-1.6
		c5.8,6.1,11.6,12.1,17.5,18.3c-8.8,13.7-37.8,16.7-50.3-8.1c0,6.7,0,12.4,0,18.5c-8.1,0-15.6,0-23.5,0c0,15.1,0,29.7,0,44.8
		c-6.9,0-13.5,0-20.4,0c0,7,0,13.5,0,20.3c-9.2,0-18.1,0-27.3,0c0-21.2,0-42.5,0-64.2c8.9,0,17.9,0,27.1,0
		C220,546.4,220,526.7,220,506.5z M237.4,570.4c-13.3-1.3-26.2-1.1-39.1-1.2c-2.9,0-2.8,1.8-2.8,3.7c0.2,17,0.5,34,0.6,51
		c0,3,1.1,3.8,3.9,3.7c4.1-0.2,8.1-0.3,12.2,0c4.1,0.3,5.1-1.4,4.9-5.1c-0.3-5.1-0.1-10.1-0.1-15.7c7.2,0,13.7,0,20.4,0
		c0-5.6,0-10.6,0-16.1c-5.4-0.3-10.5-0.5-15.5-0.9c-1.7-0.2-4.8,1.3-4.7-2c0.1-2.9,2.9-1.6,4.5-1.7c5.2-0.2,10.5-0.1,15.8-0.1
		C237.4,580.5,237.4,575.7,237.4,570.4z M260.2,562.5c0-3.2,0-5.7,0-8.2c0-7.1,0-7-7.2-7.4c-3.8-0.2-7.6,0.5-11.4-1.6
		c4.5-2.6,9.8-0.6,14.8-2.1c-0.1-4.7,0.4-9.3-0.3-13.7c-4.9-2-10-0.7-14.6-2.1c0.4-3,2.3-2.4,3.7-2.4c3.9-0.1,7.8-0.1,11.7,0
		c1.3,0,2.9,0,3-1.5c0.2-4,0.9-8.3-0.2-12c-0.9-2.8-5-0.8-7.6-1.4c-1.1-0.2-2.1-0.4-3.2-0.4c-8.6,0-17.3,0-25.9,0
		c0,16.9,0,33.4,0,49.9c0,1.9,0.8,2.9,2.8,2.9C236.9,562.4,248.2,562.5,260.2,562.5z M297.8,540.8c-1.1,0.8-1.6,1.5-2.3,1.7
		c-3,0.8-6.3,1.8-8.7-0.8c-2.7-2.8-3.2-6.5-1.1-9.9c1.7-2.9,5.1-4.9,7.9-3.5c4.7,2.5,6.7-0.4,9.3-3c1.9-1.9,3.7-3.8,5.6-5.6
		c2-1.9,1.6-3.3-0.3-5c-7.8-6.7-21.6-7.6-30.1-2c-16.6,10.9-17,33.4-0.8,44.9c9.1,6.5,21.9,6.3,30.6-0.3c1.9-1.4,3.1-2.7,0.9-4.8
		C304.8,548.9,301.2,545.2,297.8,540.8z M263.4,543.5c-1.7-5.2-0.9-10.2-0.5-15.3c-0.8-0.1-1.5-0.2-2.3-0.4c-1,4-0.3,8.3-0.4,12.5
		C260.1,541.9,259.2,544.4,263.4,543.5z"/>
	<path class="st0" d="M439.7,566.2c0,21.8,0,43.2,0,64.6c-9,0-17.9,0-27,0c0-6.3,0-12.5,0-19.5c-4.1,3.4-5.9,7.9-9.2,11.3
		c-3.5-3.1-5.4-7.5-9.1-11.5c0,6.9,0,13.1,0,19.9c-2.7,0-5,0-7.3,0c-14.8,0-29.6-0.1-44.4,0c-2.6,0-4.5-0.4-5.6-4.1
		c-0.9,3.7-2.6,4.3-5.3,4.2c-7.5-0.2-15-0.1-22.8-0.1c0-21.4,0-42.7,0-64.8c4.4,0,9,0,13.6,0c7.2,0,14.4,0,21.5,0
		c11.9,0,18.7,5.2,20.4,16.8c1.5,10.2,1.4,20.3-7.1,28.2c2.9,5.8,5.7,11.5,8.6,17.2c0.2,0,0.5,0,0.7,0c0-20.5,0-41.1,0-62.2
		c10,0,19.5,0,28.9,0c1.6,0,2.1,1,2.7,2.1c1.6,2.8,3.2,5.6,5.1,8.9c0.6-0.9,0.9-1.3,1.1-1.7c2.6-8.4,8.5-10.5,16.7-9.5
		C427.2,566.8,433.3,566.2,439.7,566.2z M402.8,582.9c-2.1-3.6-4.5-6.7-6-10.2c-1.2-2.8-2.8-3.6-5.6-3.5c-5.8,0.2-11.6,0.2-17.3-0.1
		c-3.4-0.2-4.3,1-4.2,4.2c0.2,15.3,0.2,30.6,0.3,45.9c0,2.6-0.6,5.3,0.6,7.9c6.8,0,13.6,0,20.7,0c0-8.4,0-16.4,0-25.7
		c4.5,5.6,8.1,10.3,12.2,15.5c4-5.5,7.7-10.4,12.1-16.4c0,8.6,0.1,15.8,0,23c0,3,1,4.2,4.1,4.1c4-0.2,8.1-0.3,12.2,0
		c4,0.3,5.1-1.3,5-5.1c-0.2-12.3,0-24.7-0.1-37c0-5.1-0.5-10.2-0.8-15.2c-7.1-1.5-13.8-0.8-20.5-1.2c-2.9-0.2-4.4,1-5.9,3.4
		C407.5,576,406.4,580,402.8,582.9z M333,614.3c0.3-0.1,0.5-0.2,0.7-0.3c1.9,3.4,3.7,6.9,5.6,10.3c0.7,1.3,1.1,3.2,3,3.2
		c6.1,0.1,12.3,0,19.4,0c-2.6-5.2-4.9-9.6-7.1-14c-0.8-1.6-1.8-3,0.1-4.9c7.3-7.4,9.5-20.5,5.1-29.8c-2.1-4.5-5.3-8.1-10.8-8.6
		c-11.3-0.9-22.7-1-34.1-1c-2.7,0-3.5,1.1-3.5,3.6c0.3,17.1,0.5,34.3,0.7,51.4c0,2.3,0.7,3.4,3.2,3.4c4.8-0.1,9.7-0.1,14.5,0
		c2.6,0.1,3.2-1.2,3.1-3.4C333,620.9,333,617.6,333,614.3z M336.4,627.1c0.1-0.1,0.3-0.2,0.3-0.3c0-0.1-0.2-0.2-0.2-0.3
		c-0.1,0.1-0.3,0.2-0.3,0.3C336.2,626.9,336.3,627,336.4,627.1z"/>
	<path class="st0" d="M192.2,511.9c-5.8,17.8-11.5,35.7-17.3,53.7c-6.6,0-13,0-19.4,0c-2.4,0-2.4-0.2-4.9-5.2
		c-0.9,5.7-4.8,5.4-8.8,5.3c-5-0.2-10,0-15.5,0c-6.1-19.5-12.3-39-18.6-58.9c8.6,0,16.9,0,25.7,0c1.4,3.9,2.8,8.1,4.6,13.3
		c1.3-4.9,2.4-9,3.6-13.3c5.9,0,11.9,0,18.2,0c1.1,3.9,2.2,7.9,3.4,12.5c2.4-3.2,2.7-6.8,4-10c0.6-1.5,0.9-2.8,3-2.8
		c16,0.1,32.1,0,48.4,0c0,19.8,0,39.2,0,58.9c-8.3,0-16.5,0-25.1,0c0-17.8,0-35.5,0-53.2C193,512.1,192.6,512,192.2,511.9z
		 M112.3,509.5c-0.1,1.1-0.4,1.8-0.2,2.3c5.3,16.2,10.7,32.4,16,48.6c0.4,1.2,0.9,2.1,2.2,2.1c5,0,10.2,0.7,14.9-0.4
		c2.9-0.7,2.6-5.6,4.4-8.3c0.1-0.2,0.5-0.3,0.9-0.5c2.6,2.5,2.4,7.5,5.5,8.7c3.2,1.3,7.4,0.2,11.1,0.6c4.2,0.5,5.7-1.5,6.8-5.1
		c3.3-11,7.1-21.9,10.4-32.9c1.4-4.8,3.7-9.4,4.3-15.4c-4.9,0-9.4,0.2-13.8-0.1c-3.3-0.2-5.1,0.7-6,4.1c-1.6,5.9-3.7,11.7-5.9,18.7
		c-1.8-6.7-3.4-12.3-4.9-18c-0.4-1.4-0.3-3.1-1.6-3.7c-3.7-1.6-7.7-1.5-11.5-0.8c-2.5,0.5-1.9,3.6-2.5,5.6c-1.6,5-1.7,10.5-4.4,16.5
		c-2.3-7-4.4-12.8-6.2-18.7c-0.7-2.4-2.1-3.5-4.3-3.5C122.6,509.4,117.7,509.5,112.3,509.5z M214.7,562.2c0.9-1.8,0.6-3.5,0.6-5.2
		c0-10.8,0-21.5-0.1-32.3c-0.1-16.3-0.1-16.3-16.7-15.4c-0.6,0-1.2,0.3-1.8,0.4c0,17.5,0,34.9,0,52.5
		C202.9,562.2,208.8,562.2,214.7,562.2z"/>
	<path class="st0" d="M131.3,631c-0.9-2-1.8-3.8-2.6-5.7c-0.3,0.1-0.7,0.1-0.8,0.2c-1.3,5.4-5.2,5.9-9.9,5.6
		c-4.5-0.3-9-0.1-13.6-0.1c-1.8,0-3.1-0.2-3.7-2.4c-6.4-20.6-12.9-41.2-19.5-62.3c8.7,0,17.1,0.1,25.5,0c2.1,0,2.6,1.1,3.1,2.7
		c1.3,4.1,2.7,8.1,4.5,13.4c1.5-6,2.7-10.7,4-15.8c6.3,0,12.6,0,19.5,0c1.3,4.6,2.6,9.6,4.3,15.8c2.1-6,3.7-10.8,5.4-15.8
		c9,0,18.1,0,27.6,0c-4.3,13.4-8.4,26.5-12.6,39.7c-2.3,7.3-4.8,14.5-7,21.8c-0.6,2.1-1.3,3.2-3.7,3.1
		C145,630.9,138.2,631,131.3,631z M85.7,569.5c1.3,6.7,3.6,12.9,5.7,19.2c3.8,11.6,7.7,23.2,11.6,34.7c0.5,1.3,0.4,3.6,2.4,3.7
		c5.4,0.2,11,0.6,16.3-0.2c3.7-0.5,3.1-5.3,4.9-8c0.4-0.6,0.4-1.5,1.4-1.7c1.2,0.3,1.6,1.6,1.8,2.5c1.5,6.5,5.7,8.5,11.9,7.6
		c3.4-0.5,7.3,1.2,10-0.8c2.4-1.7,2.6-5.5,2.6-8.7c0-0.1,0.1-0.3,0.2-0.4c6.1-14.4,10-29.7,15.3-44.4c1-2.9-0.2-3.7-2.8-3.7
		c-4.1,0-8.1,0.2-12.2-0.2c-3.7-0.3-5.6,0.8-6.7,4.5c-1.8,6.7-4.1,13.3-6.6,20.9c-2-8-3.7-14.9-5.4-21.7c-0.5-2-1.4-3-3.8-3.3
		c-11.6-1.3-11.6-1.3-14.4,9.9c-0.2,0.9-0.2,1.9-0.4,2.8c-0.9,3.7-1.8,7.5-2.9,12.3c-2.6-7.9-4.8-14.6-6.9-21.2
		c-0.5-1.6-0.8-3.5-3-3.5C98.5,569.6,92.3,568.6,85.7,569.5z"/>
	<path class="st0" d="M471,630.8c0-21.6,0-42.9,0-64.3c15.9,0,31.6,0,47.5,0c0,7.7,0,15.1,0,22.5c-0.8,1.3-2.4,0.3-3.6,1.2
		c0,5.4,0,11,0,16.9c0.6,1.5,2.6-0.1,3.6,1.4c0,7.2,0,14.6,0,22.3C502.7,630.8,487,630.8,471,630.8z M473.6,569.3
		c0.2,19-0.2,37.3,0.7,55.7c0.1,2.1,1.3,2.5,3.1,2.5c11.7,0,23.4,0,35.1,0c1.7,0,3.2-0.4,3.2-2.5c0-4.5,0.5-9-0.5-14
		c-5.4,0-10.7,0.1-16,0c-1.6,0-4.2,1-4.1-2.2c0.1-2.7,2.5-1.8,4-1.9c4-0.3,8,0.4,11.9-0.4c0.1-1.1,0.3-1.7,0.3-2.3
		c0.4-13.4,0.4-13.4-13-14.3c-1.3-0.1-3.1,0.5-3.2-1.7c-0.1-2.5,1.8-2.1,3.3-2.1c5.6,0,11.1,0,17,0c0.4-5.6,0.4-10.6,0-15.7
		C501.4,569.3,487.9,569,473.6,569.3z"/>
	<path class="st0" d="M364,565.4c-15.7,0-31.4,0-47.6,0c0-6,0-11.9,0-17.8c0-1.8,1.1-2.8,2.1-4c4.1-4.9,8.2-9.8,12.8-15.3
		c-5.1,0-9.8,0-14.6,0c0-7.5,0-14.4,0-21.7c15.9,0,31.6,0,47.3,0c0,6.5,0.1,13.1,0.1,19.6c-4.6,5.7-9.3,11.4-14.6,17.9
		c5.5,0,10,0,14.5,0C364,551.2,364,558.3,364,565.4z M337.7,525.1c-4.2,5.2-7.2,9.7-11,13.5c-5.5,5.5-7.3,11.8-6.7,19.4
		c0.3,3.6,1.5,4.6,4.7,4.5c11.2-0.1,22.5,0,33.7,0c0.9,0,1.9,0.1,2.5-0.7c0-4.8,0-9.4,0-14.1c-6-0.4-11.8-0.8-17.6-1.2
		c0-1.7,0.9-2.8,2-3.7c4.1-3.3,6.5-8,10.4-11.3c6.7-5.9,6.1-13.3,5.2-21c-12.9-1.7-25.7-1-38.5-1.2c-1.6,0-3,0.4-2.8,2.3
		c0.3,4.4,0.7,8.9,1.1,13.5C326.1,525.1,331.3,525.1,337.7,525.1z"/>
	<path class="st0" d="M416.5,565.4c-7.2,0.1-14.3,0-21.5,0.3c-2.7,0.1-2.8-1.9-4.4-3.8c0.6,2.9-0.2,3.9-2.7,3.8
		c-7.3-0.2-14.6-0.2-21.9-0.3c-0.3-7.3,0.6-14.5-0.5-21.8c0-5.7,0-11.5,0-17.2c1-6.6,0.1-13.2,0.5-19.8c17.2-0.9,22.5-0.5,24.7,1.7
		c2.6-2.3,7.8-2.6,25.7-1.7C416.4,526.2,416.4,545.8,416.5,565.4z M369,509.3c0,17.9,0,35.3,0,52.9c6.2,0,12,0,18.4,0
		c0-6.9,0-13.5,0-20.1c2.8,5.5,4.7,11.2,6.6,16.9c0.5,1.7,0.9,3.4,3.1,3.5c5.4,0,10.8,0,16.2,0c0-18,0-35.4,0-52.9
		c-6.3,0-12.1,0-18.4,0c0,7,0,13.6,0,20.3c-2.6-5.5-4.5-11-6.3-16.6c-0.6-2-1.6-3-3.8-3.4C379.6,509.1,374.5,509.4,369,509.3z"/>
	<path class="st0" d="M444.6,506.4c1.2,0,2.1,0,3,0c13.4,0,26.8,0,40.5,0c0,7,0,13.8,0,21.3c-0.3,1-2.4-0.5-3.3,1
		c0,4.7,0,9.5,0,14.7c3.2,0,3.9,1.9,3.7,5c-0.3,5.5-0.1,11.1-0.1,17c-14.8,0-29.1,0-43.8,0C444.6,545.8,444.6,526.4,444.6,506.4z
		 M447.8,509.4c-0.3,0.9-0.5,1.3-0.5,1.8c0,15.9,0.2,31.8,0.1,47.7c0,3.3,2,3.5,4.2,3.5c6.2,0.1,12.5,0.1,18.7,0.1
		c4.8,0,9.5,0,14.7,0c0-3.4-0.3-6.1,0.1-8.7c0.7-5-1.1-6.7-6.3-6.7c-4.1,0-8.5,0.4-12.5-1.8c4.6-2.8,9.8-0.6,14.7-2.1
		c0.3-4.7,0.5-9.3-0.1-13.7c-4.8-2.1-10-0.7-14.6-3.1c5.9-2.1,12.1-0.9,18.3-1.7c0.7-4.8,0.6-9.4,0-14.2
		C472.3,509.4,460.2,509.1,447.8,509.4z"/>
	<path class="st0" d="M307.1,599c-0.3,18.6-14.7,32.4-33.4,32c-17.5-0.4-31.5-15.1-31.3-32.9c0.3-18.2,15.1-32.1,33.8-31.8
		C293.3,566.7,307.4,581.6,307.1,599z M274.6,627.5c16.5,0,28.9-12.4,29-28.9c0-15.7-13.4-29.3-29.1-29.3
		c-15.8-0.1-29.5,13.6-29.2,29.2C245.5,614.4,258.8,627.5,274.6,627.5z"/>
	<path class="st0" d="M442,566.4c8.9,0,17.6,0,26.6,0c0,21.3,0,42.8,0,64.4c-8.7,0-17.5,0-26.6,0C442,609.4,442,588,442,566.4z
		 M444.9,569.2c0,19.7,0,38.8,0,57.9c7.2,0,13.9,0,20.8,0c0-19.2,0-38,0-56.8C458.7,568.9,452,569.4,444.9,569.2z"/>
	<path class="st0" d="M418.4,506.6c8.2,0,16.4,0,24.9,0c0,19.6,0,39,0,58.8c-8.3,0-16.6,0-25,0C418.4,545.8,418.4,526.2,418.4,506.6
		z M421.4,562.1c6.5,0,12.4,0,18.1,0c0-17.5,0-34.5,0-51.6c-6.3-1.8-12.2-1.4-18.1,0C421.4,527.8,421.4,544.9,421.4,562.1z"/>
	<path class="st1" d="M365.5,543.6c1,7.2,0.2,14.5,0.5,21.8c-0.6,0-1.3,0-1.9,0c0-7.1,0-14.2,0-21.4
		C364.5,543.9,365,543.8,365.5,543.6z"/>
	<path class="st2" d="M315.9,370.2c2-1.4,3.6-2.7,5.3-3.6c9-4.9,17.8-2,22.1,7.3c2.5,5.4,2.4,11.9,7.1,16.5c1.5,1.5,0,2.6-1.3,3.7
		c-4.1,3.5-6.1,7.9-5.9,14.8c4-6.9,7-13.2,15.1-12.4c1.6,1.4-0.9,3.2,1.1,4.6c4.4-4.6,7.6-14.6,16.6-5.3c-3,3.7-3,3.7-7.3,0.3
		c-0.7,2.7,0.6,5.8-2.9,7.6c6.2,1.7,5.3,9.4,11.7,9.7c-4.3,4.3-6.7,4.4-12.7,0.8c-1.2,0.6-0.6,1.6-0.3,2.4c1.2,3.7-0.9,5.1-4.1,5.7
		c-2.4,0.4-4.9,0.6-7.4,1.2c-4.9,1.1-9.3-0.1-10.9-4.5c-2.2-5.9-4.9-11.8-2.1-18.5c1.2-2.9,2.5-6,0.6-9.3
		c-1.4,1.1-10.9,18.6-11.1,20.3c0.8,0.6,1.4,0,2.1-0.3c0.6-0.2,1.1-0.5,1.6-0.7c2.4,3.4,4.1,10.9,3.9,17.5
		c-11.3-1.1-22.2-0.8-27.5,13.7c-1.5-2.2-2.2-3.4-3.1-4.4c-8.1-8.8-18.1-13.6-30.1-14c-9.6-0.3-18.7-3.1-27.7-6.2
		c-2.3-0.8-3.8-2-2.6-4.3c6.2-12.3,3.8-25,2.9-37.9c-1.9-27.8,2.6-55,8.6-81.9c3.9-17.2,8.6-34.1,16.8-49.9c0.9-1.8,1.1-3.5,0.4-5.4
		c-0.3-0.9-0.5-1.8-0.7-2.7c-0.1-0.9,0-1.8,0-3.1c3.3,0.2,6.5-1.7,9.1,1.4c0,1.3-1.4,2.5-0.5,4.3c8.1-4,16.5-7.5,25.8-7.9
		c-5.6,2.4-9.2,8.9-14.6,9.9c-8.5,1.6-7.1,6.9-7.1,12.4c0,13-1.9,25.8-3.1,38.9c-7.3,0.6-13.4,3.2-14.5,11.2
		c-1.2,8.7,5.1,12.6,11.8,16.3c-1.2,5.6-2.6,11.2-0.5,17c-2.2,0.6-3.8-1.9-6.4-0.2c13,10.8,24.7,22.6,34.2,37.9
		c0.4-4.9-2.2-7.5-3-11c3.9,1.2,7.6,2.9,11.6,2.7C317.4,366.6,314.2,367.7,315.9,370.2z M273.2,392.5c-4.1-12.9-4.3-25.7-5.1-38.6
		c-6.5,2.9-5-5.1-9.3-5.3c0.5,4.7,1.6,9.1,4.6,12.9c1.7,2,2.3,4.2,2.2,6.8c-0.5,6.9,0.3,13.6,2.9,20.1
		C269.1,390,269.2,392.2,273.2,392.5z M313.9,410.2c-1.9-5.3-6.1-5.3-9.6-5.6c-2.8-0.2-6.4-0.3-8.2,4
		C302.3,409.2,307.8,409.7,313.9,410.2z M266.6,300.3c-3-2.9-4-5.8-3.1-10c-6.7,5.2-1.5,10.5-2.7,16.3
		C263.6,304.3,263.5,301.3,266.6,300.3z M308.9,432.1c-1.7-2.7,1.1-5.5-0.7-8.4c-1.6,1.7-1.6,3.8-2.1,5.6c-0.5,1.9-0.6,4,1.7,5.3
		c1.7,0.9,3.1,0.1,4.1-1.1c1.6-1.9,0.8-3.7-0.7-5.3C309.7,429.1,311.4,431.5,308.9,432.1z M309.8,382.4c-0.4,0-0.8-0.1-1.2-0.1
		c-0.6,4.7-1.2,9.5-1.8,14.2C310.4,392.2,309.9,387.3,309.8,382.4z M279.4,386.9c-1.1,3,0,4.8,2.7,6.9
		C283.9,390.1,282.7,388.3,279.4,386.9z M324,404.2c4.5,0.5,4.7,0.4,4.6-3.6C326.7,401.2,324.8,401.6,324,404.2z M359.6,412.8
		c3-3.5,2.9-4.3-0.4-6C358.3,408.6,359.5,410.2,359.6,412.8z"/>
	<path class="st1" d="M136.5,231.1c-0.1,5,2.8,9.1,4.5,13.6c2.5,6.4,1.8,11.6-2.7,15.7c-4.3,4-10,4.5-16.1,1.2
		c-0.4,2.1,1.9,3.6,0.9,6c-2.7-2.1-2.6-5.6-4.8-8.2c-1.6,4.9-2.3,10.1-7.2,12.8c-4.7,2.6-9.4,3.4-14.1-0.2c1.3,8.2,3.8,9.6,11,6.6
		c2.7-1.1,5.5-1.9,8-3.6c2.4-1.7,5.4-1.6,6.9,1.9c4.7,11.2,9.2,22.4,14.2,33.4c1.5,3.4-2.1,6.4,1.2,9.5c-5.6,2.3-10.5,4.3-15.2,6.3
		c-9.5-5.4-12-15.3-16.1-23.9c-4.5-9.5-8.2-19.5-12.3-29.3c-1.1-2.6-2.2-5.3-5-7.7c2.3,16.1-4.8,22.9-18,18.2
		c-0.6,0.8,0.1,1.4,0.4,2.1c3.5,8,3.5,7.9,11.5,3.8c3-1.5,5.6-3.9,9.8-3c3,0.6,4.8,2.1,5.5,4.1c3.6,10.5,8.5,20.4,12.6,30.6
		c1.4,3.4-1.6,6.5,1,9.6c-4.4,1.9-8.4,3.7-12.4,5.2c-5.4,1.9-9.1,0-11.4-5.4c-11.7-28.2-23.5-56.3-35.2-84.5c-1.5-3.6,0-8,3.5-9.7
		c4-1.8,8.1-3.2,12-5.1c3.3-1.6,5,2,8.1,1.9c2.3-9.8,11.9-9.5,18.9-12.6c2.2-1,6.1,0.9,6.9,4.7c0.6,2.6,1.7,4.9,4,7.9
		c0-4-1.7-6.3-2.6-8.7c-1.5-4.4-0.6-7.4,3.7-9.3c3.4-1.5,6.9-2.9,10.3-4.3c4.8-1.9,8.5-0.4,10.5,4.4c0.8,1.8,0.8,4,3,4.9l0-0.1
		C132.3,224,133,228.2,136.5,231.1L136.5,231.1z M88.7,262.1c-0.2-0.6-0.1-1.5-1.3-1.3C87.4,261.8,88.1,261.9,88.7,262.1
		c0.3,0.5,0,1.5,1.1,1.4c0.1,0,0.3-0.2,0.3-0.3C90.2,262.2,89.3,262.3,88.7,262.1z M79.2,239.3c1.8,4.4,3.5,8.8,5.3,13.1
		c0.5-0.2,1.1-0.4,1.6-0.7C83.9,247.6,82.9,242.9,79.2,239.3z M115.2,253.2c0.3-0.2,0.7-0.4,1-0.6c-1.7-3.9-3.4-7.8-5.1-11.7
		C111.2,245.5,112.7,249.5,115.2,253.2z M77.9,234.2c-0.4,1.4-0.5,2.5,1.1,3.3C79.7,235.9,79,235,77.9,234.2z M116.1,254.8
		c-0.5,1.8,0,2.6,1.5,3.3C117.8,256.6,117.5,255.6,116.1,254.8z"/>
	<path class="st2" d="M341.3,246.3c0.5,8.7,6.6,13.4,12.7,17.5c19.6,13,19.8,33.1,11,51.1c-2.1,4.4-4.6,8.5-7.5,12.4
		c-1.9,2.6-2,4.8,2,5.1c4.6,0.3,7.8,2.5,9,6.8c0.8,3-0.3,5.9-3,7.8c-3.8,2.8-7.8,1.8-11.5-0.1c-5.4-2.8-5.1-2.8-8.6,2.4
		c-6.9,10.5-17.7,11.8-28.9,11.5c-5.1-0.1-9.6-2.3-13.7-5.9c6.3,3,12-1,18.1-0.9c6.9,0.1,12.7-4.1,15-10.5c1.8-4.9,1.8-4.9,7-3.6
		c-0.3-3.3-1.8-5.6-4.4-7.2c-1.9-1.2-2.1,0.9-3.2,1.8c-2.5-4-6.4-5.3-10.8-5.4c-3.9-0.2-7.1-2-10.3-4c-3.9-2.5-7.8-5-12.7-5
		c0.2-2.2,2.8-0.5,3-2.4c-4-2.1-5.9-2-9.5,0.7c0.2,2,2.7,0.2,3.3,2.4c-11.6,10.3-2.1,20.5,1,31c-12.1-4.1-19.4-23.9-13.6-37.2
		c-5.3-2-11.1-3.8-11.6-10.9c-0.2-2.6,0.1-5.2,2.7-6.6c2.5,4-1.9,9.8,3.8,12.9c2-1.8-0.8-3.9,1.1-5.4c2.2,1.4,2,4.4,3.8,6.1
		c3.1-3.8,2.2-6.1-5.5-13.6c3.3-0.8,6.1-0.3,8.4,2.3c0.9,1.1,1.9,2.2,3.5,1.6c1.6-0.6,1.6-2.1,1.6-3.6c0.2-7.7,0.8-15.3,3.4-22.6
		c4.6-12.9,16.1-20.3,29.8-19.2c3,0.2,5.1,0.8,5.6,4.7c0.5,4.9,3.1,9.1,7.7,11.6c1.7,0.9,3.7,1.7,5-0.4c1.4-2.3-1-2.8-2.3-3.7
		C335.4,263,334.5,252.5,341.3,246.3z M347.1,307c2.4-0.6,5.1,1.1,8.1-1c-3.3-4.2-8.6-4.8-12.1-8.4c-2.1,4.7,1.8,6.1,3.2,8.6
		c-7.2,0.4-7.5,8.5-13,11.4c3.9,0.7,6.1,4,9.1,5.5C345.3,317.8,345.6,312.2,347.1,307z M316.6,309c-2.7-4.9,0.6-9.5-1.3-13.9
		c-0.5-1.1-0.2-2.7-1.5-3.4c-1.5-0.8-2.6,0.3-3.6,1.3c-1.6,1.6-2.3,3.6-2.9,5.8c-0.8,3,0,6.6-3.6,8.9
		C308.1,307.5,312,308.3,316.6,309z M359.5,340c-0.1,2.1-3,1.8-2.9,4.1c5.5,2.9,6.6-4,10.7-4.3c-1.7-4.1-4.8-4.3-7.9-4
		c-3.1,0.3-6.1,0.9-7.2,4.8C354.9,341.8,356.9,339.4,359.5,340z M309.8,279.1c3.1,6.3,11.8,8.6,16.6,3.9
		C320.8,281.3,315.9,278.1,309.8,279.1z M319.3,315c-3.5-0.2-4.7,1.8-4.8,3.9c-0.1,3.1,1.6,5.2,4.7,6.1c3.3,1,6.6,1.2,8.9-1.8
		c1.1-1.4,1.3-3.7-1.2-5.1c-1,1.9-0.3,4.5-3.2,4.7c-2.3,0.1-4.3-0.3-5.9-2C315.7,318.6,318.6,317.4,319.3,315z"/>
	<path class="st1" d="M514.8,237.7c-2.5,3.1-3.9,6.8-5,10.4c-2.1,7.4-7.7,13-9.9,20.5c-1.9,6.6-6.3,8.7-12.5,7.8
		c-5.8-0.8-9.8-5-10.5-11.3c-1.7,0-0.8,2.1-2.8,2.6c-0.2-5.7,4.4-10.1,4.9-16.3c-3.9,2.3-4.1,5.8-5.5,8.3c-2.4,4.3-5.2,6.9-10.2,6.4
		c-5.2-0.5-9.1-2.9-11.4-7.6c-0.3-0.7-0.6-1.4-1-2.4c-2.2,2.7-2.4,5.7-3.3,8.6c3.1,3.7,7.4,4.9,11.9,5.7c7.4,1.3,8.5,3.2,5.8,9.9
		c-4,9.8-8.5,19.4-11.9,29.4c-1.5,4.3-6.3,4.5-7.2,8.7c-5.6-2.4-10.9-4.6-16.3-6.8c2.3-3.6,0.6-7.3,1.3-10.9
		c1.6-7.9,5.2-14.8,8.1-22c7.9-19.7,16.1-39.3,24.1-58.9c0.4-1,1.2-1.9,0.5-3.9c-2.2,4.5-4,8.5-6.1,12.4c-3,5.6-5.3,11.5-7.7,17.4
		c-2,5-4.8,9.9-11.1,9.8c-5.2-0.1-11.2-2.4-13.5-10.6c-1,1.6-1.9,3.1-3.2,5.3c-0.4-4.2,1.5-6.8,2.7-9.6c4.7-11.5,9.5-23,14.3-34.5
		c1.6-3.9,5.8-5.7,9.8-4.1c2.8,1.1,5.4,2.5,8.2,3.3c4.6,1.4,7,4.2,7.1,9.4c3.8-3.1,7.5-4.1,11.8-1.6c2.8,1.6,6,2.6,9,3.8
		c1.9,0.7,3.3,1.6,3.5,3.8c0.2,2,1.6,3.5,3.5,2.6c5.2-2.5,9.4,0.5,13.7,2.3c3.4,1.4,7.5,1.7,8.8,6.6
		C515.3,234.4,514.6,236,514.8,237.7C514.8,237.7,514.8,237.7,514.8,237.7z M482.9,242.9c-3,3.3-3.4,4.6-2.4,8.3
		C481.3,248.1,482.9,246.3,482.9,242.9z M487.5,231.8c-1.7,2-2.8,3.4-2.3,5.7C486.8,236.1,487.6,234.6,487.5,231.8z M484.5,238.8
		c-1.2,1-2,1.9-1.2,3.3C484.6,241.4,485,240.5,484.5,238.8z M488.5,230.3c-0.1-0.2-0.2-0.5-0.3-0.7c-0.1,0.1-0.3,0.2-0.3,0.3
		c0,0.3,0.1,0.5,0.1,0.8C488.1,230.5,488.3,230.4,488.5,230.3z"/>
	<path class="st2" d="M344.4,498c3,0.7,6.4-2.5,8.3,2.1c-8.2,0-16.2,0-24.2,0c-0.7-2.8-0.6-5.6,1.3-7.6c5.8-6.3,7-14,8.1-22
		c1.1-7.7,3.4-15,6.1-23.6c-4.4,1.2-4.5,5.2-6.9,6.8c-1.9-0.4-0.5-2.7-3.2-4c0.2,10.5-0.3,20.6-3.3,30.2c-9.4-1-17.3-12.7-12.7-20.9
		c9.1-16.2,22.9-27.6,41.2-32c10.1-2.4,19,8.6,17.4,19.6c-1.4,9.3-5.7,17.4-11.2,24.9c-3.5,4.8-7.1,9.5-10.2,14.5
		c-1.6,2.7-3.4,3.5-6.3,3.1c-2.3-0.3-4.7-0.1-7.1,1c8.1,2.6,16.8,3.9,24.8,10.1c-5-0.3-8.9,1.7-11.5-3.8
		C353.3,492.7,348.1,493.6,344.4,498z M361.7,441.9c2,3.4,4.3,4.3,7.2,4c2.1-0.3,3.9-1,3.5-4.1C369,442.6,365.7,442.1,361.7,441.9z"
		/>
	<path class="st2" d="M256.1,480.1c-3.3-10-3.6-20.1-3.4-30.5c-2.9,0.8-1.4,3.3-3.1,4c-2.8-2.2-2.9-6.9-6.8-8.1
		c-1.3,1.1-0.7,2.2-0.3,3.1c4.3,9.1,5.6,19.1,7.3,28.9c0.8,4.7,2.2,9,5.4,12.7c2.3,2.6,3.7,5.7,2.7,9.8c-7.9,0.8-15.9,0.4-24.2,0.4
		c2.2-5.2,5.8-1.4,8.6-2.5c-1.5-2.7-3.6-3.8-6.5-3.6c-3.8,0.3-5.2,2.9-6,5.9c-3.1,0-6,0-9.9,0c7.9-6.1,16.5-7.6,25.7-9.5
		c-2.5-1.5-4.4-2.2-6.1-1.7c-4.8,1.5-6.8-1-9.1-4.7c-3.6-5.8-7.8-11.1-11.7-16.7c-4.4-6.3-7.6-13.2-9.1-20.7
		c-2.4-12,9.2-23,20.9-19.4c15.1,4.7,27,14.4,35.9,27.2C273.5,464.8,268.3,476.8,256.1,480.1z M214.4,441.8c-0.2,3.1,1.4,4.1,3.9,4
		c2.8-0.1,5.5-0.3,6.2-4.5C220.9,442.4,217.7,441.9,214.4,441.8z"/>
	<path class="st3" d="M246,420.3c12.6,3.7,25.4,6.8,38.7,7.7c1.4,4.9-0.9,9-2,13.2c-0.9,3.4-0.4,4.7,3.6,4.6
		c6.4-0.2,12.8,1,18.8,3.1c4,1.4,7,4.4,7.2,9.2c0.2,6-1.1,11.7-3.2,17.4c-0.8,2.1-2.2,2.8-4.2,3.1c-5.7,0.6-11.4,1.8-17.1,0.1
		c-0.7-0.2-1.5-0.3-2.4,1.1c8,2.5,15.7,2.5,23-0.7c2.8-1.2,3.1-5.2,4.6-8.4c2.6,6.1,6.4,10.8,12.6,13.8c-10.1,6-21.1,7.2-32.4,7
		c-11.1-0.2-22.4,0.2-32.1-6.9c8.7-4.7,13.7-11.9,13.5-22.1c-0.1-4.4-2.2-8-4.4-11.6c-4.9-8.1-12.9-12.9-20-18.6
		C246,428.8,241.4,426.5,246,420.3z"/>
	<path class="st1" d="M131.8,219.9c0.1-2.3-1.1-4.2-1.9-6.2c-1.8-4.2-0.6-7.7,3.5-9.5c3.7-1.6,7.5-3.1,11.3-4.5
		c3.7-1.4,7.9,0.1,9.3,3.9c3.1,8.4,8,16.1,9.2,25.3c0.3,2.6,2,5.1,3.1,7.6c1.9,4.3,2,8.4-1.4,12.1c-3.7,4.1-8.4,5-13.6,4.1
		c-1.2-0.2-2.4-0.6-3.6-1c-0.1-0.1-0.2-0.2-0.3-0.3c0.1,0.1,0.2,0.1,0.3,0.2c1.3,2.9,2.6,5.9,3.7,8.2c7,1.4,11.4-3.5,17-5
		c3-0.8,4.8-0.3,6.1,3c4,10.1,8.1,20.1,12.9,29.9c1.9,3.9-0.6,7.5,1.1,11.3c-4.4,1.9-8.9,3.8-13.4,5.5c-3.4,1.3-7.6-0.5-9.1-3.9
		c-7.4-17.5-14.6-35-22-52.5c-2.4-5.7-4.1-11.7-7.5-17l0.1,0.1C135.7,227.1,134.2,223.3,131.8,219.9L131.8,219.9z"/>
	<path class="st1" d="M499.6,277.7c2.7-10.7,8.5-20.2,12.3-30.4c1.2-3.1,3.3-6,3-9.6l0,0.1c5-5.7,6.3-5.9,13.5-2.8
		c2.3,1,4.6,1.9,6.9,2.9c4.9,2.1,6.1,5.8,4.4,10.7c-4.1,11.7-11.2,21.9-15.5,33.6c-1.4,3.8-5.3,5.3-9.3,5.2
		c-6.2,0-11.4-4.8-12.6-11.7c-0.9,1-1.5,1.8-2.1,2.5C500,278.1,499.8,277.9,499.6,277.7z"/>
	<path class="st1" d="M162.8,309.5c-4,1.7-7.5,3.4-11.1,4.8c-5.6,2.3-9.6,0.4-12.3-5.3c-5.5-11.5-9.7-23.5-14.7-35.1
		c-0.7-1.5-1-3.1-1.3-5.1c4.7,5.2,9.2,2.4,13.5-0.1c3.5-2,7.2-2.4,11.6-2.7C152.5,280.7,163.2,293,162.8,309.5z"/>
	<path class="st1" d="M500.2,278.2c0,0.5-0.1,0.9-0.1,1.4c0,2.6-3.1,5.3-1.1,7.4c2.6,2.6,5.9,4.8,9.6,5.8c1.6,0.4,3.4,0.7,4.9,1.4
		c3.2,1.3,4,3.9,2.8,6.9c-3.5,8.6-7.4,17.1-10.5,25.9c-1.8,5-4.8,8.7-9.4,12.3c-4.5-1.8-9.6-4-15.1-6.2c1.6-3.1-2.2-5.4-1-8.5
		c1.2-3.3,2.5-6.6,3.8-9.9c4.7-11.6,9.5-23.3,14.3-34.9c0.3-0.7,0.8-1.3,1.2-1.9C499.8,277.9,500,278.1,500.2,278.2z"/>
	<path class="st1" d="M420.8,257.4c5.3,2.6,10.4,4.8,15.6,6.8c2.5,1,4,4,2.6,7.4c-3.9,9.1-8,18.1-11.2,27.4c-1.4,4-5.3,5-7.2,8.5
		c-4.9-1.8-10.2-3-14.6-5.7c-1.3-0.8-4.1-4.8-2.8-7.8c6.2-14.2,10.8-29,17.8-42.9c0-0.1,0.3-0.1,0.8-0.1
		C422.9,253.3,420.7,255.2,420.8,257.4z"/>
	<path class="st1" d="M472.9,268.8c1.2,2.7,0.3,3.8,0,5c-1.5,6-1.1,5.8,4.5,8.1c4.1,1.6,7.9,4.1,12.1,5.9c1.5,0.6,1.8,1.8,1.1,3.5
		c-4.4,10.5-8.7,20.9-13,31.4c-1.2,3-5.7,2.3-5.9,6.3c-4.9-2-9.4-3.6-13.7-5.7c-4-1.9-3.8-6.3-2.9-9.3
		C459.4,298.5,467,284.5,472.9,268.8z"/>
	<path class="st1" d="M303.7,224.4c-1.2-3.6,0.3-4.8,3.3-4.5c10.9,1,21.9,1.4,32.8,3.2c9.1,1.6,18.4,2.3,27.6,4.3
		c16.3,3.5,32.2,8.4,47.6,14.7c0.3,0.1,0.6,0.2,0.9,0.4c1.3,0.7,3.2,1.1,2.4,3.3c-1,2.6-2.8,1.2-4.2,0.6
		c-13.8-5.5-27.8-10-42.2-13.4c-21.4-5-43.1-7.9-65.1-8.4C305.9,224.6,304.9,224.5,303.7,224.4z"/>
	<path class="st1" d="M321.1,350.8c1.6-6.3,1.2-11.9-2-17.2c-1.8-3-5.1-4.3-8.1-2.7c-4.6,2.5-10.5,3.3-13.3,8.7
		c-3.2-4.5-2.8-12,0.6-15.1c3.2-3,7.9-3,12.3,0.8c5,4.3,11.2,5.8,17.1,7.7c6.5,2.1,8.7,7.1,4.6,12.6
		C329.6,349.2,325.9,351.2,321.1,350.8z"/>
	<path class="st1" d="M272.3,221.5c0.7,2.7,0,3.9-3.1,4.2c-14.4,1-28.6,3.3-42.8,6.1c-2.3,0.5-5.3,1.6-6.8-1.9
		C225.5,226,265.2,219.8,272.3,221.5z"/>
	<path class="st3" d="M314.9,453.1c-3-12.4-0.5-15.6,12.5-15.6c-0.9-1.9,3.1-3.5,0-5.7c3,0,5.9,0,9,0c-1,2.9-2.8,0.1-4.4,1.3
		c-0.1,1.1,0.9,2.5-1,3.9C324.8,441.4,319.3,446.7,314.9,453.1z"/>
	<path class="st3" d="M306.7,444.9c-6.4-1.8-13-2.8-19.8-3.3c0.6-4,2.6-7.5,2.6-11.9c6.5,3.3,12.3,7.1,16.6,12.8
		C306.7,443.3,307.5,444,306.7,444.9L306.7,444.9z M293.4,439.6c1.5-0.1,2.6-0.5,2.4-2.2c-0.3-2-1.9-2.3-3.5-2.4
		c-1.4-0.1-2.5,0.6-2.3,2.2C290.3,439.3,292,439.3,293.4,439.6z"/>
	<path class="st2" d="M380.2,398.3c0.5-3.2-1.9-4.7-4-6.6c2.3-5,6-8.6,9.6-12.4c2,1.3,0.6,2.6,0.1,3.7c-1.5,2.7-3,5.4-4.6,8.1
		c-1.1,1.8-1.1,3.6,0.3,5.1c1.5,1.6,3.1,0.6,4.6-0.3c2.7-1.5,5.4-3.1,8.2-4.4c1.4-0.7,3-1.6,5.8-0.4
		C393.7,394.9,388.4,399.6,380.2,398.3z"/>
	<path class="st1" d="M307.6,338.7c0.1-3.3,1.8-5.5,5.3-5.8c3.6-0.2,5.8,2,5.9,5.2s-2,5.9-5.3,5.9
		C310.5,344,307.7,342.5,307.6,338.7z"/>
	<path class="st2" d="M373.8,402.3c4.4-2.8,10.2-2.1,14.5,1.5C384.1,407,377.6,406.4,373.8,402.3z"/>
	<path class="st2" d="M283.1,229.1c-0.3-4.6-0.5-8.3-0.7-12.1c0-0.8,0.6-1.4,1.5-1.6c1-0.2,1.8,0.1,2.4,1
		C288.3,219.1,286.9,226.1,283.1,229.1z"/>
	<path class="st1" d="M318.2,347.6c0,3.2-2.1,3.9-4.4,4.5c-5.1,1.2-9.9,1-13-4c-1.5-2.5-2.5-5.3,0.2-8.1
		C302.3,350.4,307.8,352.8,318.2,347.6z"/>
	<path class="st2" d="M290.1,215.5c2.4-1.1,3.1,0.1,3.6,1.8c1.3,4.4-0.2,10-3.7,12.7C289.8,224.8,291.7,220.1,290.1,215.5z"/>
	<path class="st3" d="M322.7,430.6c1.2,1.2,1.4,2.4,1.7,3.8c-2.8,0.6-5.6,1.1-9.6,1.9C317.8,433.9,319.7,431.7,322.7,430.6z"/>
	<path class="st2" d="M385.9,408.2c-5.1,3.8-8.8,3.4-11.7-0.9C377.9,407.9,381.4,408.7,385.9,408.2z"/>
	<path class="st2" d="M276.5,227.6c0-3.9,0-7.1,0-10.8C280.2,221,280.2,224.1,276.5,227.6z"/>
	<path class="st2" d="M298.1,227.2c-0.5-3.7,0-7.3-0.1-11C300.3,219.8,300,223.5,298.1,227.2z"/>
	<path class="st2" d="M337.4,335.8c-0.3,0.2-0.5,0.5-0.8,0.7c-0.1-0.2-0.4-0.4-0.4-0.7c-0.2-0.6,0.3-0.7,0.7-0.7
		C337,335.1,337.2,335.5,337.4,335.8z"/>
	<path class="st3" d="M306.7,445c0.2-0.1,0.4-0.1,0.6-0.2c0,0-0.1,0.1-0.1,0.1c-0.1,0-0.3,0-0.4,0C306.7,444.9,306.7,445,306.7,445z
		"/>
	<path class="st1" d="M237.4,570.4c0,5.3,0,10.1,0,15.7c-5.4,0-10.6-0.1-15.8,0.1c-1.6,0-4.4-1.2-4.5,1.7c-0.1,3.3,3,1.9,4.7,2
		c5.1,0.4,10.2,0.6,15.5,0.9c0,5.5,0,10.5,0,16.1c-6.7,0-13.1,0-20.4,0c0,5.6-0.2,10.6,0.1,15.7c0.2,3.7-0.8,5.5-4.9,5.1
		c-4-0.3-8.1-0.2-12.2,0c-2.7,0.1-3.9-0.7-3.9-3.7c-0.1-17-0.4-34-0.6-51c0-2-0.1-3.8,2.8-3.7C211.2,569.3,224.1,569.1,237.4,570.4z
		"/>
	<path class="st1" d="M260.2,562.5c-12,0-23.3,0-34.7,0c-2,0-2.8-1-2.8-2.9c0-16.5,0-33,0-49.9c8.7,0,17.3,0,25.9,0
		c1.1,0,2.2,0.2,3.2,0.4c2.6,0.5,6.7-1.5,7.6,1.4c1.2,3.7,0.4,8,0.2,12c-0.1,1.5-1.7,1.5-3,1.5c-3.9,0-7.8,0-11.7,0
		c-1.4,0-3.3-0.6-3.7,2.4c4.6,1.4,9.7,0.1,14.6,2.1c0.7,4.4,0.2,9,0.3,13.7c-5,1.5-10.3-0.5-14.8,2.1c3.8,2.1,7.7,1.4,11.4,1.6
		c7.2,0.4,7.2,0.3,7.2,7.4C260.2,556.7,260.2,559.2,260.2,562.5z"/>
	<path class="st1" d="M297.8,540.8c3.5,4.5,7,8.1,10.8,11.6c2.3,2.1,1,3.3-0.9,4.8c-8.7,6.6-21.5,6.8-30.6,0.3
		c-16.1-11.5-15.7-34,0.8-44.9c8.5-5.6,22.3-4.6,30.1,2c1.9,1.7,2.3,3.1,0.3,5c-1.9,1.8-3.8,3.7-5.6,5.6c-2.5,2.6-4.6,5.5-9.3,3
		c-2.8-1.4-6.2,0.5-7.9,3.5c-2,3.5-1.6,7.1,1.1,9.9c2.5,2.6,5.7,1.6,8.7,0.8C296.1,542.3,296.7,541.6,297.8,540.8z"/>
	<path class="st1" d="M402.8,582.9c3.6-3,4.8-7,6.8-10.4c1.5-2.4,3-3.6,5.9-3.4c6.7,0.4,13.4-0.3,20.5,1.2c0.3,5,0.7,10.1,0.8,15.2
		c0.1,12.3-0.1,24.7,0.1,37c0.1,3.8-1,5.4-5,5.1c-4-0.3-8.1-0.2-12.2,0c-3.1,0.2-4.2-1-4.1-4.1c0.1-7.2,0-14.3,0-23
		c-4.4,6-8.1,11-12.1,16.4c-4.1-5.2-7.8-9.9-12.2-15.5c0,9.3,0,17.3,0,25.7c-7.1,0-13.9,0-20.7,0c-1.2-2.6-0.6-5.3-0.6-7.9
		c-0.1-15.3-0.1-30.6-0.3-45.9c0-3.2,0.9-4.4,4.2-4.2c5.8,0.3,11.5,0.3,17.3,0.1c2.8-0.1,4.4,0.7,5.6,3.5
		C398.3,576.2,400.6,579.4,402.8,582.9z"/>
	<path class="st1" d="M333,614.3c0,3.3-0.1,6.5,0,9.8c0.1,2.3-0.5,3.5-3.1,3.4c-4.8-0.1-9.7-0.1-14.5,0c-2.5,0.1-3.2-1.1-3.2-3.4
		c-0.2-17.1-0.4-34.3-0.7-51.4c0-2.5,0.8-3.6,3.5-3.6c11.4,0,22.7,0.1,34.1,1c5.5,0.5,8.6,4.1,10.8,8.6c4.4,9.3,2.2,22.4-5.1,29.8
		c-1.9,1.9-0.9,3.3-0.1,4.9c2.2,4.4,4.5,8.8,7.1,14c-7,0-13.2,0-19.4,0c-1.9,0-2.3-1.9-3-3.2c-1.9-3.4-3.8-6.8-5.6-10.3
		C333.5,614.1,333.3,614.2,333,614.3z M333.5,594.3c2.7,0.2,5.5,1,6.8-1.9c0.7-1.5,1-3.6-0.2-4.9c-2-2.3-4.7-1.6-7.2-1.1
		C332.2,589.2,332.6,591.6,333.5,594.3z"/>
	<path class="st3" d="M336.4,627.1c-0.1-0.1-0.2-0.2-0.2-0.3c0-0.1,0.2-0.2,0.3-0.3c0.1,0.1,0.3,0.2,0.2,0.3
		C336.7,626.9,336.5,627,336.4,627.1z"/>
	<path class="st1" d="M112.3,509.5c5.3,0,10.3-0.1,15.3,0c2.2,0,3.6,1.2,4.3,3.5c1.8,5.9,3.9,11.7,6.2,18.7c2.7-6,2.8-11.5,4.4-16.5
		c0.6-2,0-5.1,2.5-5.6c3.8-0.7,7.8-0.8,11.5,0.8c1.3,0.6,1.3,2.3,1.6,3.7c1.5,5.7,3,11.3,4.9,18c2.2-7,4.3-12.8,5.9-18.7
		c0.9-3.4,2.6-4.3,6-4.1c4.5,0.3,8.9,0.1,13.8,0.1c-0.5,5.9-2.8,10.6-4.3,15.4c-3.3,11-7.1,21.9-10.4,32.9c-1.1,3.6-2.6,5.6-6.8,5.1
		c-3.7-0.5-7.8,0.7-11.1-0.6c-3.1-1.3-2.9-6.3-5.5-8.7c-0.4,0.2-0.8,0.2-0.9,0.5c-1.8,2.7-1.5,7.6-4.4,8.3
		c-4.7,1.2-9.9,0.4-14.9,0.4c-1.3,0-1.8-0.9-2.2-2.1c-5.3-16.2-10.7-32.4-16-48.6C112,511.2,112.2,510.6,112.3,509.5z"/>
	<path class="st1" d="M214.7,562.2c-5.9,0-11.7,0-18,0c0-17.6,0-35,0-52.5c0.6-0.1,1.2-0.4,1.8-0.4c16.6-0.9,16.6-0.9,16.7,15.4
		c0,10.8,0.1,21.5,0.1,32.3C215.3,558.7,215.5,560.4,214.7,562.2z"/>
	<path class="st1" d="M85.7,569.5c6.7-0.9,12.8,0.1,19,0.3c2.3,0.1,2.5,1.9,3,3.5c2.2,6.7,4.3,13.3,6.9,21.2
		c1.2-4.8,2.1-8.6,2.9-12.3c0.2-0.9,0.2-1.9,0.4-2.8c2.8-11.3,2.8-11.2,14.4-9.9c2.3,0.3,3.3,1.3,3.8,3.3c1.7,6.9,3.4,13.7,5.4,21.7
		c2.4-7.7,4.8-14.2,6.6-20.9c1-3.8,2.9-4.9,6.7-4.5c4,0.4,8.1,0.2,12.2,0.2c2.6,0,3.8,0.8,2.8,3.7c-5.3,14.7-9.1,30-15.3,44.4
		c-0.1,0.1-0.2,0.3-0.2,0.4c0,3.2-0.2,6.9-2.6,8.7c-2.7,2-6.7,0.3-10,0.8c-6.3,1-10.4-1-11.9-7.6c-0.2-0.9-0.6-2.2-1.8-2.5
		c-1,0.1-1,1.1-1.4,1.7c-1.8,2.6-1.3,7.4-4.9,8c-5.3,0.8-10.9,0.4-16.3,0.2c-1.9-0.1-1.9-2.3-2.4-3.7c-3.9-11.6-7.7-23.2-11.6-34.7
		C89.3,582.4,87,576.2,85.7,569.5z"/>
	<path class="st1" d="M473.6,569.3c14.3-0.3,27.9,0,41.8,1c0.4,5.1,0.4,10.2,0,15.7c-5.8,0-11.4,0-16.9,0c-1.5,0-3.4-0.4-3.3,2.1
		c0.1,2.2,1.9,1.6,3.2,1.7c13.4,0.9,13.4,0.9,13,14.3c0,0.6-0.1,1.2-0.3,2.3c-3.9,0.8-7.9,0.1-11.9,0.4c-1.5,0.1-3.9-0.8-4,1.9
		c-0.1,3.2,2.5,2.2,4.1,2.2c5.3,0.1,10.6,0,16,0c0.9,5.1,0.4,9.6,0.5,14c0,2.1-1.5,2.5-3.2,2.5c-11.7,0-23.4,0-35.1,0
		c-1.8,0-3-0.4-3.1-2.5C473.4,606.6,473.8,588.3,473.6,569.3z"/>
	<path class="st1" d="M337.7,525.1c-6.4,0-11.6,0-17.2,0c-0.4-4.6-0.8-9.1-1.1-13.5c-0.1-1.9,1.3-2.3,2.8-2.3
		c12.8,0.2,25.5-0.5,38.5,1.2c1,7.7,1.5,15.1-5.2,21c-3.8,3.4-6.3,8.1-10.4,11.3c-1.1,0.9-1.9,2-2,3.7c5.8,0.4,11.5,0.8,17.6,1.2
		c0,4.8,0,9.4,0,14.1c-0.5,0.8-1.5,0.7-2.5,0.7c-11.2,0-22.5,0-33.7,0c-3.2,0-4.5-1-4.7-4.5c-0.5-7.6,1.2-13.9,6.7-19.4
		C330.5,534.8,333.5,530.2,337.7,525.1z"/>
	<path class="st1" d="M369,509.3c5.6,0.1,10.7-0.2,15.8,0.7c2.2,0.4,3.2,1.3,3.8,3.4c1.7,5.6,3.7,11.1,6.3,16.6c0-6.7,0-13.4,0-20.3
		c6.3,0,12.1,0,18.4,0c0,17.5,0,34.9,0,52.9c-5.4,0-10.8,0-16.2,0c-2.2,0-2.6-1.8-3.1-3.5c-1.9-5.7-3.8-11.4-6.6-16.9
		c0,6.6,0,13.2,0,20.1c-6.3,0-12.1,0-18.4,0C369,544.6,369,527.3,369,509.3z"/>
	<path class="st1" d="M447.8,509.4c12.4-0.3,24.5,0,36.8,1.1c0.6,4.8,0.6,9.4,0,14.2c-6.1,0.8-12.4-0.3-18.3,1.7
		c4.7,2.3,9.8,1,14.6,3.1c0.5,4.4,0.4,9,0.1,13.7c-4.9,1.5-10.1-0.7-14.7,2.1c4,2.2,8.4,1.8,12.5,1.8c5.2,0,7,1.7,6.3,6.7
		c-0.4,2.6-0.1,5.3-0.1,8.7c-5.1,0-9.9,0-14.7,0c-6.2,0-12.5,0-18.7-0.1c-2.3,0-4.3-0.3-4.2-3.5c0.1-15.9-0.1-31.8-0.1-47.7
		C447.3,510.7,447.5,510.3,447.8,509.4z"/>
	<path class="st1" d="M274.6,627.5c-15.8,0-29.1-13.2-29.3-29c-0.2-15.6,13.4-29.3,29.2-29.2c15.7,0.1,29.1,13.6,29.1,29.3
		C303.5,615.2,291.1,627.5,274.6,627.5z M282.6,598.2c0.2-4.5-2.7-7.7-7.3-8c-4.8-0.3-8.6,3.3-8.8,8.1c-0.1,5.7,2.1,8.1,7.5,8.3
		C279.7,607,282.4,604.3,282.6,598.2z"/>
	<path class="st1" d="M444.9,569.2c7.1,0.1,13.8-0.4,20.8,1.2c0,18.8,0,37.6,0,56.8c-6.8,0-13.6,0-20.8,0
		C444.9,608,444.9,588.9,444.9,569.2z"/>
	<path class="st1" d="M421.4,562.1c0-17.3,0-34.4,0-51.6c5.9-1.3,11.8-1.7,18.1,0c0,17,0,34.1,0,51.6
		C433.7,562.1,427.9,562.1,421.4,562.1z"/>
	<path class="st0" d="M273.2,392.5c-3.9-0.4-4.1-2.5-4.7-4.1c-2.6-6.5-3.4-13.2-2.9-20.1c0.2-2.6-0.5-4.8-2.1-6.8
		c-3-3.7-4.1-8.1-4.6-12.9c4.3,0.1,2.8,8.1,9.3,5.3C268.9,366.9,269,379.7,273.2,392.5z"/>
	<path class="st0" d="M313.9,410.2c-6.1-0.5-11.7-1-17.9-1.5c1.9-4.3,5.4-4.2,8.2-4C307.9,404.9,312.1,404.9,313.9,410.2z"/>
	<path class="st0" d="M266.6,300.3c-3.1,1-3,4.1-5.8,6.3c1.2-5.7-4-11.1,2.7-16.3C262.6,294.5,263.5,297.3,266.6,300.3z"/>
	<path class="st0" d="M308.9,432.1c2.5-0.7,0.8-3,2.2-3.9c1.5,1.6,2.4,3.4,0.7,5.3c-1,1.2-2.4,2-4.1,1.1c-2.3-1.2-2.2-3.3-1.7-5.3
		c0.5-1.8,0.6-3.9,2.1-5.6C310,426.6,307.2,429.4,308.9,432.1z"/>
	<path class="st0" d="M309.8,382.4c0.1,4.8,0.6,9.7-3,14.1c0.6-4.7,1.2-9.5,1.8-14.2C309,382.4,309.4,382.4,309.8,382.4z"/>
	<path class="st0" d="M279.4,386.9c3.3,1.4,4.5,3.1,2.7,6.9C279.4,391.8,278.3,390,279.4,386.9z"/>
	<path class="st0" d="M324,404.2c0.8-2.7,2.7-3.1,4.6-3.6C328.7,404.6,328.5,404.8,324,404.2z"/>
	<path class="st0" d="M359.6,412.8c-0.2-2.5-1.4-4.1-0.4-6C362.5,408.5,362.6,409.2,359.6,412.8z"/>
	<path class="st0" d="M79.2,239.3c3.7,3.5,4.7,8.3,6.9,12.5c-0.5,0.2-1.1,0.4-1.6,0.7C82.7,248.1,80.9,243.7,79.2,239.3z"/>
	<path class="st0" d="M115.2,253.2c-2.5-3.6-4-7.7-4.1-12.3c1.7,3.9,3.4,7.8,5.1,11.7C115.9,252.8,115.6,253,115.2,253.2z"/>
	<path class="st0" d="M131.8,219.9c2.4,3.4,3.9,7.2,4.7,11.3C133,228.2,132.3,224.1,131.8,219.9z"/>
	<path class="st0" d="M77.9,234.2c1.2,0.8,1.8,1.6,1.1,3.3C77.4,236.8,77.4,235.6,77.9,234.2z"/>
	<path class="st0" d="M116.1,254.8c1.4,0.8,1.7,1.9,1.5,3.3C116.1,257.4,115.6,256.5,116.1,254.8z"/>
	<path class="st0" d="M88.7,262.1c0.6,0.2,1.5,0.1,1.4,1.1c0,0.1-0.2,0.3-0.3,0.3C88.8,263.5,89,262.6,88.7,262.1L88.7,262.1z"/>
	<path class="st0" d="M88.8,262c-0.6-0.2-1.4-0.2-1.3-1.2C88.7,260.6,88.5,261.5,88.8,262C88.7,262.1,88.8,262,88.8,262z"/>
	<path class="st0" d="M316.6,309c-4.7-0.7-8.5-1.5-12.9-1.5c3.6-2.2,2.8-5.8,3.6-8.9c0.5-2.1,1.3-4.2,2.9-5.8c1-1,2.1-2.1,3.6-1.3
		c1.3,0.7,1,2.4,1.5,3.4C317.3,299.5,313.9,304.1,316.6,309z"/>
	<path class="st0" d="M347.1,307c-1.5,5.3-1.9,10.9-4.7,16c-3-1.5-5.2-4.8-9.1-5.5c5.4-2.9,5.7-11,13-11.4l-0.1-0.1
		c-0.2,0.9,0.2,1.1,1,1L347.1,307z"/>
	<path class="st0" d="M359.5,340c-2.6-0.6-4.6,1.8-7.3,0.6c1.1-3.8,4.1-4.5,7.2-4.8c3.2-0.3,6.3-0.1,7.9,4
		c-4.1,0.3-5.2,7.2-10.7,4.3C356.5,341.9,359.4,342.1,359.5,340z"/>
	<path class="st0" d="M309.8,279.1c6.1-1,11,2.2,16.6,3.9C321.6,287.7,312.9,285.5,309.8,279.1z"/>
	<path class="st0" d="M319.3,315c-0.8,2.4-3.6,3.6-1.5,5.9c1.6,1.7,3.7,2.1,5.9,2c3-0.1,2.3-2.8,3.2-4.7c2.5,1.4,2.3,3.6,1.2,5.1
		c-2.3,3-5.6,2.8-8.9,1.8c-3-0.9-4.8-3.1-4.7-6.1C314.6,316.8,315.8,314.8,319.3,315z"/>
	<path class="st0" d="M346.3,306.1c-1.3-2.5-5.2-3.9-3.2-8.6c3.5,3.7,8.8,4.2,12.1,8.4c-3,2.2-5.6,0.4-8.1,1l0.1,0.1
		C347.6,306,346.9,306.1,346.3,306.1L346.3,306.1z"/>
	<path class="st0" d="M482.9,242.9c0,3.4-1.6,5.2-2.4,8.3C479.5,247.5,479.9,246.1,482.9,242.9z"/>
	<path class="st0" d="M487.5,231.8c0.1,2.8-0.7,4.3-2.3,5.7C484.7,235.3,485.8,233.9,487.5,231.8z"/>
	<path class="st0" d="M484.5,238.8c0.5,1.8,0,2.7-1.2,3.3C482.6,240.6,483.3,239.8,484.5,238.8z"/>
	<path class="st0" d="M488.5,230.3c-0.2,0.1-0.4,0.2-0.5,0.3c0-0.3-0.1-0.5-0.1-0.8c0-0.1,0.2-0.2,0.3-0.3
		C488.3,229.8,488.4,230.1,488.5,230.3z"/>
	<path class="st0" d="M361.7,441.9c4.1,0.2,7.3,0.7,10.6-0.1c0.4,3.1-1.4,3.8-3.5,4.1C365.9,446.2,363.6,445.3,361.7,441.9z"/>
	<path class="st0" d="M214.4,441.8c3.3,0.1,6.5,0.6,10.1-0.5c-0.7,4.2-3.4,4.4-6.2,4.5C215.9,445.8,214.2,444.9,214.4,441.8z"/>
	<path class="st0" d="M147.8,251.7c-0.1-0.1-0.2-0.1-0.3-0.2C147.5,251.6,147.6,251.7,147.8,251.7
		C147.7,251.8,147.8,251.7,147.8,251.7z"/>
	<path class="st0" d="M293.4,439.6c-1.4-0.3-3.1-0.3-3.4-2.4c-0.2-1.6,0.8-2.3,2.3-2.2c1.6,0.1,3.2,0.3,3.5,2.4
		C296,439.1,294.9,439.5,293.4,439.6z"/>
	<path class="st0" d="M333.5,594.3c-0.9-2.7-1.4-5.1-0.6-8c2.5-0.5,5.2-1.1,7.2,1.1c1.2,1.3,1,3.4,0.2,4.9
		C339,595.3,336.2,594.5,333.5,594.3z"/>
	<path class="st0" d="M282.6,598.2c-0.2,6-3,8.7-8.5,8.5c-5.4-0.2-7.6-2.7-7.5-8.3c0.1-4.9,4-8.4,8.8-8.1
		C279.9,590.6,282.8,593.8,282.6,598.2z M279.8,599c-0.2-3.3-2-5.1-4.9-5.2c-3-0.1-4.9,2-5,4.9c0,2.8,1.8,4.8,4.6,4.9
		C277.4,603.7,279.3,602,279.8,599z"/>
	<path class="st2" d="M346.2,306c0.6,0.1,1.4,0,1,1C346.4,307.1,346,306.9,346.2,306z"/>
</g>
</svg>
